<svg width="1576" height="432" viewBox="0 0 1576 432" fill="none" xmlns="http://www.w3.org/2000/svg">
<path d="M1442.3 338.9C1441.2 338.9 1440.2 338.6 1439.3 338.1C1438.4 337.6 1437.6 336.9 1436.8 336.1C1436 335.3 1435.3 334.3 1434.5 333.1C1433.8 331.9 1433 330.7 1432.4 329.6L1430.1 325.7C1428.7 323.3 1427.4 321.2 1425.8 319.5C1424.3 317.8 1422.4 317 1420.3 317C1418.2 317 1418.3 317.4 1417.9 318.2C1417.4 319 1417.3 319.8 1417.3 320.7C1417.3 321.6 1417.8 323.1 1418.6 324.6C1419.4 326.1 1420.6 328 1422 329.9L1429.5 340.8C1431.7 344 1433.6 347.2 1435.1 350.5C1436.6 353.9 1437.4 357 1437.4 360V374.5C1437.4 376.4 1437.8 378 1438.6 379.1C1439.4 380.3 1440.4 380.9 1441.6 380.9C1442.8 380.9 1444.1 380.2 1444.8 378.8C1445.5 377.4 1445.9 375.9 1445.9 374.2V359.2C1445.9 356.5 1446.7 353.5 1448.4 350.2C1449.9 346.9 1451.9 343.7 1454.1 340.4L1461.9 328.9C1463.2 327.1 1464.2 325.4 1465 323.9C1465.8 322.4 1466.2 321.3 1466.2 320.4C1466.2 319 1465.8 318.2 1465.2 317.9C1464.6 317.6 1463.9 317.4 1463.4 317.4C1461.7 317.4 1460 318.2 1458.6 319.8C1457.1 321.4 1455.7 323.3 1454.3 325.5L1451.8 329.7C1451.1 330.9 1450.3 332.1 1449.6 333.2C1448.9 334.4 1448.1 335.4 1447.3 336.2C1446.5 337 1445.7 337.7 1444.8 338.2C1444 338.7 1443.1 339 1442.2 339M1358.4 337.9C1357.4 337.9 1356.5 338.4 1355.8 339.4C1355.1 340.4 1354.7 342 1354.7 344.1V364.7C1354.7 370.8 1356.1 375.2 1358.7 378.2C1361.3 381.2 1364.9 382.7 1369.4 382.7C1373.9 382.7 1372.7 382.5 1373.9 382.2C1375 381.8 1376 381.5 1376.8 381C1377.6 380.6 1378.3 380.3 1379.2 379.9C1380 379.6 1381 379.4 1382.2 379.4C1383.4 379.4 1383.9 379.4 1384.6 379.6C1385.2 379.6 1385.8 379.9 1386.3 380C1386.8 380 1387.3 380.3 1387.9 380.4C1388.5 380.4 1389.3 380.6 1390.3 380.6C1392 380.6 1393.1 379.8 1393.8 378.1C1394.4 376.4 1394.7 374 1394.7 370.9V347.4C1394.7 346.1 1394.7 344.9 1394.7 343.8C1394.7 342.6 1394.4 341.6 1394.2 340.8C1393.9 340 1393.5 339.3 1393 338.8C1392.5 338.3 1391.7 338.1 1390.8 338.1C1389.9 338.1 1389.3 338.4 1388.8 338.8C1388.3 339.3 1387.8 340 1387.5 340.8C1387.2 341.6 1387 342.5 1386.9 343.4C1386.9 344.4 1386.7 345.2 1386.7 346V359.5C1386.7 361.4 1386.5 363.3 1386.1 365.2C1385.6 367.1 1385 368.9 1384.2 370.5C1383.3 372.1 1382.2 373.5 1380.8 374.5C1379.4 375.5 1377.8 376 1375.9 376C1373.2 376 1371 375.5 1369.3 374.6C1367.6 373.7 1366.2 372.3 1365.2 370.4C1364.2 368.5 1363.5 366.2 1363.1 363.4C1362.6 360.7 1362.5 357.4 1362.5 353.7V344.9C1362.5 342.7 1362.2 341 1361.6 339.8C1361 338.6 1360 338 1358.7 338M1345.4 324.7C1345.4 321.7 1345.1 319.3 1344.5 317.8C1343.9 316.3 1343 315.4 1341.6 315.4C1340.2 315.4 1339 316.1 1338.4 317.7C1337.9 319.2 1337.6 321.6 1337.6 324.7V372.6C1337.6 375.2 1337.9 377.2 1338.4 378.8C1338.9 380.3 1340 381.1 1341.6 381.1C1343.2 381.1 1344 380.3 1344.6 378.7C1345.1 377.2 1345.4 375.1 1345.4 372.6V324.7ZM1321.6 334.2C1320.8 333.4 1320.1 332.5 1319.8 331.5C1319.3 330.5 1319 329.5 1318.6 328.6C1318.1 327.7 1317.7 327 1317.1 326.3C1316.6 325.7 1315.7 325.4 1314.7 325.4C1313.7 325.4 1312.9 325.7 1312.4 326.3C1311.9 326.9 1311.4 327.8 1311 328.7C1310.6 329.6 1310.3 330.6 1309.9 331.6C1309.4 332.6 1308.9 333.5 1308.2 334.2C1307.3 335.1 1306.3 336 1305.2 337C1304 338 1303.5 339.1 1303.5 340.3C1303.5 341.5 1303.9 342 1304.6 342.7C1305.3 343.4 1306.1 344.2 1307.1 345.1C1308 346 1308.8 347.1 1309.6 348.3C1310.3 349.6 1310.7 351.2 1310.7 353.3V365C1310.7 367.2 1310.9 369.3 1311.2 371.3C1311.5 373.4 1312.1 375.2 1313.1 376.8C1314 378.4 1315.3 379.7 1316.9 380.6C1318.5 381.6 1320.6 382.1 1323.2 382.1C1325.8 382.1 1325.7 381.9 1326.8 381.5C1327.9 381 1328.4 380.3 1328.4 379.2C1328.4 378.1 1328.2 378 1327.9 377.6C1327.4 377.1 1327 376.8 1326.4 376.4C1325.8 376 1325.1 375.7 1324.5 375.2C1323.8 374.8 1323.1 374.4 1322.6 373.8C1321.2 372.4 1320.2 371 1319.7 369.6C1319.1 368.2 1318.8 366.7 1318.8 365.1V353.3C1318.8 350.9 1319.3 349.1 1320.3 347.8C1321.3 346.5 1322.5 345.5 1323.7 344.7C1324.9 343.9 1326.1 343.2 1327.1 342.7C1328.1 342.2 1328.6 341.4 1328.6 340.5C1328.6 339.6 1328.4 339.2 1328.1 338.9C1327.7 338.6 1327.3 338.3 1326.6 337.9C1326 337.6 1325.2 337.2 1324.4 336.7C1323.5 336.2 1322.5 335.4 1321.4 334.3M1263.5 337.9C1262.5 337.9 1261.6 338.4 1260.9 339.4C1260.2 340.4 1259.8 342 1259.8 344.1V364.7C1259.8 370.8 1261.2 375.2 1263.8 378.2C1266.4 381.2 1270 382.7 1274.5 382.7C1279 382.7 1277.8 382.5 1279 382.2C1280.1 381.8 1281.1 381.5 1281.9 381C1282.7 380.6 1283.4 380.3 1284.3 379.9C1285.1 379.6 1286.1 379.4 1287.3 379.4C1288.5 379.4 1289 379.4 1289.7 379.6C1290.3 379.6 1290.9 379.9 1291.4 380C1291.9 380 1292.4 380.3 1293 380.4C1293.6 380.4 1294.4 380.6 1295.4 380.6C1297.1 380.6 1298.2 379.8 1298.9 378.1C1299.5 376.4 1299.8 374 1299.8 370.9V347.4C1299.8 346.1 1299.8 344.9 1299.8 343.8C1299.8 342.6 1299.5 341.6 1299.3 340.8C1299 340 1298.6 339.3 1298.1 338.8C1297.6 338.3 1296.8 338.1 1295.9 338.1C1295 338.1 1294.4 338.4 1293.9 338.8C1293.4 339.3 1292.9 340 1292.6 340.8C1292.3 341.6 1292.1 342.5 1292 343.4C1292 344.4 1291.8 345.2 1291.8 346V359.5C1291.8 361.4 1291.6 363.3 1291.2 365.2C1290.7 367.1 1290.1 368.9 1289.3 370.5C1288.4 372.1 1287.3 373.5 1285.9 374.5C1284.5 375.5 1282.9 376 1281 376C1278.3 376 1276.1 375.5 1274.4 374.6C1272.7 373.7 1271.3 372.3 1270.3 370.4C1269.3 368.5 1268.6 366.2 1268.2 363.4C1267.7 360.7 1267.6 357.4 1267.6 353.7V344.9C1267.6 342.7 1267.3 341 1266.7 339.8C1266.1 338.6 1265.1 338 1263.8 338M1208.4 345.5L1202.8 329.7C1201.9 327.2 1201.1 325.1 1200.3 323.4C1199.6 321.9 1198.8 320.6 1197.8 319.6C1197 318.8 1196 318.1 1194.8 317.7C1193.6 317.3 1192.1 317.2 1190.3 317.2C1188.5 317.2 1187.2 317.6 1186.2 318.2C1185.2 318.9 1184.4 319.7 1183.9 320.7C1183.4 321.7 1183 322.7 1182.9 323.7C1182.9 324.7 1182.7 325.5 1182.7 326.2V372.2C1182.7 373.1 1182.7 374.1 1182.9 375.1C1182.9 376.1 1183.2 377 1183.4 377.8C1183.7 378.6 1184.1 379.3 1184.7 379.9C1185.2 380.4 1185.9 380.7 1186.7 380.7C1187.5 380.7 1188.7 380.1 1189.4 378.8C1190.1 377.5 1190.5 376.2 1190.5 374.8V353.6C1190.5 348.4 1190.9 344.4 1191.5 341.6C1192.1 338.8 1193.1 337.3 1194.6 337.3C1196.1 337.3 1196.5 337.8 1197.3 338.6C1198.1 339.4 1198.9 340.5 1199.8 341.9C1200.5 343.3 1201.3 344.8 1201.9 346.5C1202.5 348.2 1203.2 350 1203.8 351.7L1208.2 363.8C1208.9 365.8 1209.7 367.8 1210.3 369.8C1210.9 371.9 1211.6 373.7 1212.3 375.3C1213 376.9 1213.8 378.3 1214.8 379.3C1215.7 380.3 1216.8 380.8 1218 380.8C1219.2 380.8 1220.1 380.3 1220.9 379.3C1221.7 378.4 1222.4 377.1 1223.2 375.6C1223.8 374.1 1224.6 372.3 1225.2 370.3C1225.8 368.3 1226.6 366.2 1227.4 364L1231.6 352.4C1232.4 350.3 1233.1 348.3 1234 346.4C1234.7 344.5 1235.5 342.9 1236.2 341.5C1236.9 340.1 1237.7 339.1 1238.5 338.3C1239.2 337.5 1240 337.1 1240.8 337.1C1242.3 337.1 1243.5 338.3 1244.2 340.7C1244.8 343.2 1245.2 347.2 1245.2 352.9V373.5C1245.2 374 1245.2 374.6 1245.4 375.3C1245.4 376.1 1245.7 376.8 1245.9 377.7C1246.2 378.5 1246.5 379.2 1247.1 379.7C1247.6 380.2 1248.4 380.5 1249.2 380.5C1250 380.5 1250.7 380.2 1251.2 379.7C1251.7 379.2 1252.1 378.6 1252.4 378C1252.7 377.4 1252.8 376.6 1252.9 376C1252.9 375.4 1252.9 374.8 1252.9 374.5V328.1C1252.9 325.8 1252.9 323.9 1252.5 322.5C1252.2 321 1251.8 319.9 1251.1 319C1250.5 318.2 1249.6 317.6 1248.6 317.4C1247.6 317.1 1246.5 317 1245.1 317C1243.7 317 1241.8 317.3 1240.6 317.7C1239.4 318.2 1238.3 318.9 1237.5 319.9C1236.6 320.9 1235.8 322.2 1235.1 323.7C1234.5 325.2 1233.7 327 1233 329.1L1226.9 345.6C1226.3 347.3 1225.6 349.1 1225 350.6C1224.4 352.1 1223.6 353.5 1222.9 354.7C1222.2 355.9 1221.4 356.9 1220.6 357.5C1219.8 358.2 1218.9 358.6 1217.9 358.6C1216.9 358.6 1215.8 358.1 1214.9 357.3C1213.9 356.5 1213.1 355.5 1212.4 354.2C1211.6 352.9 1210.9 351.5 1210.3 349.9C1209.7 348.4 1209 346.8 1208.5 345.4M1156.2 355.4C1156.2 349.4 1154.8 344.9 1152 341.9C1149.2 338.9 1145.3 337.4 1140.1 337.4C1134.9 337.4 1135.1 337.6 1133 338C1130.9 338.5 1129.1 338.9 1127.6 339.5C1126.1 340.1 1125 340.7 1124.1 341.2C1123.3 341.7 1122.9 342.1 1122.9 342.3C1122.9 342.5 1122.9 342.6 1123.3 342.7C1123.6 342.7 1123.8 342.9 1123.9 342.9C1125 342.9 1126.5 342.6 1128.5 342C1130.5 341.4 1133 341.1 1136.1 341.1C1139.2 341.1 1138 341.3 1139.3 341.6C1140.5 342 1141.7 342.5 1142.8 343.1C1143.9 343.8 1144.9 344.7 1145.7 345.7C1146.5 346.8 1146.9 348.1 1146.9 349.4C1146.9 350.7 1146.5 351.9 1145.9 352.9C1145.2 353.9 1144.3 354.7 1143.3 355.4C1142.3 356 1141.1 356.6 1139.8 356.9C1138.5 357.3 1137.3 357.4 1136.3 357.4C1134.2 357.4 1132.1 357.6 1129.9 357.9C1127.6 358.3 1125.6 358.9 1123.8 359.8C1122 360.7 1120.5 362 1119.3 363.5C1118.1 365 1117.5 367.1 1117.5 369.7C1117.5 372.3 1118 374.2 1119.1 375.8C1120.1 377.3 1121.4 378.6 1122.7 379.4C1124.1 380.2 1125.4 380.8 1126.8 381C1128.2 381.4 1129.2 381.5 1129.8 381.5C1130.4 381.5 1131.3 381.5 1132.2 381.2C1133.1 381.2 1134 380.8 1135 380.6C1136 380.3 1136.9 380.1 1137.7 379.6C1138.5 379.1 1139.2 378.7 1139.9 378.1C1138.5 378.3 1137 378.1 1135.4 377.9C1133.9 377.6 1132.4 377.2 1131 376.4C1129.6 375.7 1128.5 374.7 1127.7 373.5C1126.8 372.3 1126.3 370.9 1126.3 369.2C1126.3 367.5 1126.8 365.8 1127.8 364.6C1128.8 363.3 1129.9 362.2 1131.3 361.4C1132.6 360.6 1133.8 360 1135.1 359.6C1136.4 359.2 1137.3 359.1 1137.9 359.1C1138.5 359.1 1139.6 359.3 1140.7 359.6C1141.7 360 1142.7 360.5 1143.7 361.1C1144.7 361.8 1145.5 362.6 1146.2 363.6C1146.9 364.6 1147.1 365.7 1147.1 367C1147.1 368.3 1146.9 369.6 1146.5 370.8C1146 372 1145.5 373.1 1145 374C1144.4 375 1143.8 375.7 1143.3 376.4C1142.7 377 1142.3 377.4 1142.1 377.6C1142.6 378.1 1143.3 378.5 1144.1 378.8C1144.9 379.1 1145.7 379.3 1146.6 379.4C1147.4 379.6 1148.2 379.7 1149.1 379.8C1149.8 379.8 1150.4 379.8 1150.8 379.8C1152.7 379.8 1154 379.2 1154.8 377.9C1155.5 376.7 1155.9 375.4 1155.9 373.8V355.5L1156.2 355.4ZM1074.4 361C1074.4 358.5 1074.9 356.3 1075.8 354.2C1076.6 352.2 1077.8 350.5 1079.3 349.1C1080.8 347.7 1082.4 346.6 1084.3 345.8C1086.2 345 1088.1 344.6 1090.1 344.6C1092.1 344.6 1094.7 345.1 1096.6 346.2C1098.4 347.3 1100 348.7 1101.1 350.3C1102.3 351.9 1103.2 353.7 1103.8 355.5C1104.4 357.4 1104.7 359 1104.7 360.6C1104.7 362.2 1104.3 364.5 1103.6 366.4C1102.9 368.3 1101.9 369.9 1100.6 371.4C1099.2 372.9 1097.7 374 1096 374.9C1094.3 375.8 1092.4 376.3 1090.3 376.3C1088.2 376.3 1086.2 375.9 1084.3 375.1C1082.4 374.4 1080.7 373.3 1079.2 371.9C1077.7 370.5 1076.6 369 1075.7 367.1C1074.8 365.2 1074.3 363.2 1074.3 361M1112.8 372.6V322.1C1112.8 320.2 1112.8 318.7 1112.4 317.6C1112.1 316.4 1111.8 315.6 1111.4 315C1110.9 314.5 1110.5 314.1 1110 313.9C1109.5 313.7 1108.9 313.6 1108.5 313.6C1107.4 313.6 1106.5 314.1 1105.9 315.3C1105.3 316.5 1104.9 318.4 1104.9 320.8V327C1104.9 328.8 1104.9 330.5 1104.7 332.1C1104.7 333.7 1104.3 335.2 1103.9 336.4C1103.4 337.7 1102.7 338.7 1101.8 339.3C1100.9 340 1099.7 340.4 1098.2 340.4C1096.7 340.4 1095.9 340.4 1095.1 340C1094.3 339.8 1093.6 339.5 1092.7 339.3C1091.9 339 1091.1 338.8 1090.2 338.6C1089.2 338.3 1087.9 338.2 1086.3 338.2C1084.7 338.2 1082.1 338.6 1079.8 339.4C1077.4 340.2 1075.3 341.6 1073.3 343.4C1071.3 345.2 1069.7 347.6 1068.3 350.4C1066.9 353.2 1066.3 356.7 1066.3 360.8C1066.3 364.9 1066.8 367.1 1067.8 369.8C1068.8 372.6 1070.2 375 1071.9 376.9C1073.6 378.9 1075.8 380.4 1078.3 381.6C1080.8 382.7 1083.6 383.2 1086.6 383.2C1089.6 383.2 1090 383 1091.1 382.7C1092.3 382.3 1093.3 382 1094.2 381.6C1095.1 381.1 1096 380.8 1096.9 380.4C1097.8 380.1 1099 379.9 1100.4 379.9C1101.8 379.9 1102.7 379.9 1103.3 380.1C1103.8 380.1 1104.3 380.4 1104.7 380.5C1105.1 380.7 1105.4 380.9 1105.9 381C1106.4 381 1107 381.2 1107.9 381.2C1109.6 381.2 1110.9 380.5 1111.7 378.9C1112.5 377.4 1112.9 375.4 1112.9 372.6H1112.8ZM1057.7 327.5V319.8C1057.7 318.4 1057.4 317.3 1057 316.6C1056.5 316 1055.9 315.6 1055.3 315.6C1054.7 315.6 1053.8 316 1053.4 316.7C1052.9 317.4 1052.7 318.4 1052.7 319.8V327.5C1052.7 328.5 1053 329.4 1053.4 330.2C1053.9 331 1054.5 331.4 1055.1 331.4C1055.7 331.4 1056.6 330.9 1057.1 330.1C1057.6 329.3 1057.7 328.5 1057.7 327.5ZM1042.8 355.4C1042.8 349.4 1041.4 344.9 1038.6 341.9C1035.8 338.9 1031.9 337.4 1026.7 337.4C1021.5 337.4 1021.7 337.6 1019.6 338C1017.5 338.5 1015.7 338.9 1014.2 339.5C1012.7 340.1 1011.6 340.7 1010.7 341.2C1009.9 341.7 1009.5 342.1 1009.5 342.3C1009.5 342.5 1009.5 342.6 1009.9 342.7C1010.2 342.7 1010.4 342.9 1010.5 342.9C1011.6 342.9 1013.1 342.6 1015.1 342C1017.1 341.4 1019.6 341.1 1022.7 341.1C1025.8 341.1 1024.6 341.3 1025.9 341.6C1027.1 342 1028.3 342.5 1029.4 343.1C1030.5 343.8 1031.5 344.7 1032.3 345.7C1033.1 346.8 1033.5 348.1 1033.5 349.4C1033.5 350.7 1033.1 351.9 1032.5 352.9C1031.8 353.9 1030.9 354.7 1029.9 355.4C1028.9 356 1027.7 356.6 1026.4 356.9C1025.1 357.3 1023.9 357.4 1022.9 357.4C1020.8 357.4 1018.7 357.6 1016.5 357.9C1014.2 358.3 1012.2 358.9 1010.4 359.8C1008.6 360.7 1007.1 362 1005.9 363.5C1004.7 365 1004.1 367.1 1004.1 369.7C1004.1 372.3 1004.6 374.2 1005.7 375.8C1006.7 377.3 1008 378.6 1009.3 379.4C1010.7 380.2 1012 380.8 1013.4 381C1014.8 381.4 1015.8 381.5 1016.4 381.5C1017 381.5 1017.9 381.5 1018.8 381.2C1019.7 381.2 1020.6 380.8 1021.6 380.6C1022.6 380.3 1023.5 380.1 1024.3 379.6C1025.1 379.1 1025.8 378.7 1026.5 378.1C1025.1 378.3 1023.6 378.1 1022 377.9C1020.5 377.6 1019 377.2 1017.6 376.4C1016.2 375.7 1015.1 374.7 1014.3 373.5C1013.4 372.3 1012.9 370.9 1012.9 369.2C1012.9 367.5 1013.4 365.8 1014.4 364.6C1015.4 363.3 1016.5 362.2 1017.9 361.4C1019.2 360.6 1020.4 360 1021.7 359.6C1023 359.2 1023.9 359.1 1024.5 359.1C1025.1 359.1 1026.2 359.3 1027.3 359.6C1028.3 360 1029.3 360.5 1030.3 361.1C1031.3 361.8 1032.1 362.6 1032.8 363.6C1033.4 364.6 1033.7 365.7 1033.7 367C1033.7 368.3 1033.5 369.6 1033.1 370.8C1032.6 372 1032.1 373.1 1031.6 374C1031 375 1030.4 375.7 1029.9 376.4C1029.3 377 1028.9 377.4 1028.7 377.6C1029.2 378.1 1029.9 378.5 1030.7 378.8C1031.5 379.1 1032.3 379.3 1033.2 379.4C1034 379.6 1034.8 379.7 1035.7 379.8C1036.4 379.8 1037 379.8 1037.4 379.8C1039.3 379.8 1040.6 379.2 1041.4 377.9C1042.1 376.7 1042.5 375.4 1042.5 373.8V355.5L1042.8 355.4ZM961.8 358.6C961.8 356.1 962.3 353.8 963.2 351.8C964.1 349.9 965.4 348.3 966.9 346.9C968.4 345.6 970.2 344.6 972.3 343.9C974.3 343.3 976.5 342.9 978.8 342.9C981.1 342.9 982.7 343.4 984.4 344.4C986.1 345.4 987.6 346.7 988.8 348.2C990 349.7 990.9 351.5 991.5 353.3C992.1 355.2 992.4 357 992.4 358.8C992.4 360.6 992 362.4 991.3 364.3C990.6 366.2 989.6 367.9 988.3 369.5C987 371 985.5 372.3 983.8 373.3C982.1 374.3 980.2 374.8 978.1 374.8C976 374.8 973.6 374.3 971.6 373.4C969.6 372.6 967.9 371.4 966.5 369.9C965 368.4 964 366.7 963.1 364.8C962.3 362.9 961.9 360.8 961.9 358.7M987.2 339.6C985.8 339.6 984.7 339.4 983.9 339.1C983.1 338.8 982.2 338.5 981.4 338C980.5 337.6 979.5 337.3 978.4 336.9C977.2 336.6 975.8 336.4 973.9 336.4C970.2 336.4 967 337.1 964.4 338.7C961.8 340.2 959.7 342.1 958.1 344.2C956.5 346.5 955.3 348.8 954.6 351.4C953.9 354 953.5 356.4 953.5 358.5C953.5 360.6 953.8 362.7 954.2 364.5C954.7 366.3 955.2 368 955.8 369.3C956.4 370.7 957.1 371.8 957.8 372.8C958.4 373.8 959.1 374.5 959.5 375C960 375.5 960.8 376.2 961.6 376.8C962.4 377.5 963.3 378.2 964.5 378.8C965.7 379.4 967 379.9 968.5 380.3C970 380.8 971.6 380.9 973.5 380.9C975.4 380.9 976.7 380.9 977.8 380.6C978.8 380.4 979.7 380.2 980.4 380C981.1 379.7 981.8 379.5 982.4 379.4C983 379.2 983.8 379.1 984.6 379.1C986.5 379.1 988.1 379.6 989.1 380.8C990.1 382.1 990.6 383.4 990.6 385.1C990.6 386.8 990.1 388.6 989.3 390.2C988.4 391.7 987.2 392.9 985.8 393.9C984.4 394.9 982.8 395.6 981.1 396.2C979.3 396.7 977.5 397 975.6 397C973.7 397 971.9 396.8 970.5 396.5C969.1 396.2 968 395.9 967 395.5C966 395.1 965.2 394.9 964.5 394.6C963.7 394.3 962.9 394.1 962 394.1C960.6 394.1 959.7 394.3 959.2 394.6C958.6 395 958.3 395.8 958.3 397C958.3 398.2 958.8 399.1 959.8 399.9C960.8 400.7 962.2 401.4 963.8 402C965.4 402.5 967.3 403 969.4 403.3C971.5 403.6 973.6 403.7 975.7 403.7C979.9 403.7 983.5 403.1 986.6 401.8C989.7 400.5 992.2 398.7 994.2 396.3C996.2 393.9 997.7 391.1 998.7 387.8C999.7 384.4 1000.2 380.8 1000.2 376.7V346.2C1000.2 345.6 1000.2 344.7 1000.2 343.8C1000.2 342.9 999.8 342 999.5 341.2C999.1 340.4 998.6 339.7 998 339.1C997.3 338.6 996.3 338.3 995.1 338.3C993.9 338.3 993.3 338.3 992.8 338.5C992.3 338.5 991.9 338.8 991.5 338.9C991.1 338.9 990.7 339.2 990.1 339.3C989.6 339.3 988.6 339.5 987.4 339.5L987.2 339.6ZM949.7 355.4C949.7 349.4 948.3 344.9 945.5 341.9C942.7 338.9 938.8 337.4 933.6 337.4C928.4 337.4 928.6 337.6 926.5 338C924.4 338.5 922.6 338.9 921.1 339.5C919.6 340.1 918.5 340.7 917.6 341.2C916.8 341.7 916.4 342.1 916.4 342.3C916.4 342.5 916.4 342.6 916.8 342.7C917.1 342.7 917.3 342.9 917.4 342.9C918.5 342.9 920 342.6 922 342C924 341.4 926.5 341.1 929.6 341.1C932.7 341.1 931.5 341.3 932.8 341.6C934 342 935.2 342.5 936.3 343.1C937.4 343.8 938.4 344.7 939.2 345.7C940 346.8 940.4 348.1 940.4 349.4C940.4 350.7 940 351.9 939.4 352.9C938.7 353.9 937.8 354.7 936.8 355.4C935.8 356 934.6 356.6 933.3 356.9C932 357.3 930.8 357.4 929.8 357.4C927.7 357.4 925.6 357.6 923.4 357.9C921.1 358.3 919.1 358.9 917.3 359.8C915.5 360.7 914 362 912.8 363.5C911.6 365 911 367.1 911 369.7C911 372.3 911.5 374.2 912.6 375.8C913.6 377.3 914.9 378.6 916.2 379.4C917.6 380.2 918.9 380.8 920.3 381C921.7 381.4 922.7 381.5 923.3 381.5C923.9 381.5 924.8 381.5 925.7 381.2C926.6 381.2 927.5 380.8 928.5 380.6C929.5 380.3 930.4 380.1 931.2 379.6C932 379.1 932.7 378.7 933.4 378.1C932 378.3 930.5 378.1 928.9 377.9C927.4 377.6 925.9 377.2 924.5 376.4C923.1 375.7 922 374.7 921.2 373.5C920.3 372.3 919.8 370.9 919.8 369.2C919.8 367.5 920.3 365.8 921.3 364.6C922.3 363.3 923.4 362.2 924.8 361.4C926.1 360.6 927.3 360 928.6 359.6C929.9 359.2 930.8 359.1 931.4 359.1C932 359.1 933.1 359.3 934.2 359.6C935.2 360 936.2 360.5 937.2 361.1C938.2 361.8 939 362.6 939.7 363.6C940.3 364.6 940.6 365.7 940.6 367C940.6 368.3 940.4 369.6 940 370.8C939.5 372 939 373.1 938.5 374C937.9 375 937.3 375.7 936.8 376.4C936.2 377 935.8 377.4 935.6 377.6C936.1 378.1 936.8 378.5 937.6 378.8C938.4 379.1 939.2 379.3 940.1 379.4C940.9 379.6 941.7 379.7 942.6 379.8C943.3 379.8 943.9 379.8 944.3 379.8C946.2 379.8 947.5 379.2 948.3 377.9C949 376.7 949.4 375.4 949.4 373.8V355.5L949.7 355.4ZM899.9 324.3C900.9 324.3 901.8 323.9 902.4 323.3C903 322.7 903.4 321.8 903.4 321C903.4 320.2 903.1 319.4 902.5 318.6C901.9 318 901 317.6 899.9 317.6C898.8 317.6 897.9 318 897.4 318.6C896.8 319.3 896.5 320.1 896.5 321C896.5 321.9 896.8 322.6 897.3 323.3C897.8 323.9 898.8 324.3 899.9 324.3ZM903.9 345.7C903.9 345 903.9 344.2 903.9 343.2C903.9 342.3 903.5 341.4 903.3 340.6C903 339.8 902.6 339.1 902.1 338.4C901.6 337.9 900.8 337.6 900 337.6C899.2 337.6 898.5 337.9 898.1 338.4C897.6 339 897.3 339.8 897 340.6C896.7 341.4 896.5 342.3 896.5 343.2C896.5 344.2 896.3 345 896.3 345.7V373.7C896.3 374.3 896.3 375 896.5 375.8C896.5 376.6 896.8 377.4 897 378.2C897.3 378.9 897.6 379.6 898.1 380C898.6 380.5 899.2 380.8 900 380.8C900.8 380.8 901.5 380.5 902 380.1C902.5 379.6 902.9 379 903.2 378.3C903.5 377.6 903.7 376.8 903.8 375.9C903.8 375.1 904 374.4 904 373.7V345.7H903.9ZM884.3 324.7C884.3 321.7 884 319.3 883.4 317.8C882.8 316.3 881.9 315.4 880.5 315.4C879.1 315.4 877.9 316.1 877.3 317.7C876.8 319.2 876.5 321.6 876.5 324.7V372.6C876.5 375.2 876.8 377.2 877.3 378.8C877.8 380.3 878.9 381.1 880.5 381.1C882.1 381.1 882.9 380.3 883.5 378.7C884 377.2 884.3 375.1 884.3 372.6V324.7ZM830.7 352.3C830.7 351.7 831 350.3 831.4 348.4C831.9 346.5 832.6 344.4 833.5 342.3C834.3 340.2 835.3 338.4 836.5 336.8C837.7 335.3 839 334.4 840.3 334.4C841.6 334.4 842.2 334.8 843.1 335.5C843.9 336.3 844.7 337.2 845.5 338.4C846.2 339.6 846.9 340.9 847.5 342.2C848 343.6 848.5 344.9 849 346.2C849.4 347.6 849.6 348.7 849.9 349.7C850.1 350.7 850.2 351.4 850.2 351.9C850.2 354.4 849.5 356.4 848.1 357.8C846.6 359.3 844.1 360 840.6 360C837.1 360 835.1 359.4 833.4 358.2C831.7 357 830.8 355.1 830.8 352.4M851.9 333.6C850.9 331.3 850 329.1 849.3 327.2C848.5 325.3 847.8 323.6 846.9 322.1C846.1 320.7 845.2 319.6 844.2 318.8C843.2 318 842 317.6 840.7 317.6C839.4 317.6 838.3 318 837.5 318.7C836.6 319.5 835.8 320.5 835 321.8C834.2 323.2 833.5 324.7 832.8 326.4C832.1 328.2 831.3 330.1 830.3 332.1L819.3 357.3C818.8 358.3 818.1 359.8 817.3 361.6C816.5 363.5 815.6 365.4 814.8 367.4C814 369.4 813.3 371.3 812.6 373.1C812 375 811.6 376.5 811.6 377.5C811.6 378.5 811.9 379.8 812.5 380.2C813.1 380.7 814 380.9 815.3 380.9C816.6 380.9 817.1 380.4 817.9 379.5C818.7 378.6 819.4 377.5 820.2 376.2C820.9 375 821.7 373.7 822.3 372.6C822.9 371.4 823.5 370.4 824.1 369.8C825 368.9 825.9 368.2 826.7 367.7C827.5 367.2 828.5 366.9 829.5 366.6C830.5 366.3 831.6 366.2 833 366.1C834.3 366.1 835.8 366.1 837.6 366.1H843.8C845.3 366.1 846.8 366.1 848 366.1C849.2 366.1 850.4 366.3 851.4 366.6C852.4 366.9 853.3 367.2 854.1 367.7C854.9 368.2 855.7 368.8 856.6 369.6C857.6 370.6 858.4 371.8 859.1 373.1C859.7 374.5 860.5 375.6 861.1 376.8C861.7 378 862.6 378.9 863.5 379.7C864.3 380.5 865.5 381 867 381C868.5 381 869.2 380.5 869.6 379.7C870 378.9 870.1 378.3 870.1 377.9C870.1 376.9 869.8 375.6 869.3 373.9C868.7 372.3 868 370.4 867.3 368.5C866.5 366.6 865.7 364.8 864.8 362.9C864 361.1 863.3 359.5 862.7 358.3L851.9 333.5V333.6Z" fill="#434242"/>
<path d="M1517.5 336.6C1515.7 336.6 1513.8 336.8 1511.9 337.2C1510 337.7 1508.2 338.4 1506.5 339.4C1504.9 340.4 1503.5 341.8 1502.5 343.3C1501.5 344.9 1501 346.8 1501 349.1C1501 351.4 1501.5 353.6 1502.6 355.1C1503.7 356.6 1505.1 357.8 1506.8 358.7C1508.4 359.7 1510.3 360.4 1512.2 361C1514.1 361.6 1515.9 362.3 1517.7 363C1519.3 363.8 1520.7 364.7 1521.8 365.9C1522.9 367.1 1523.4 368.6 1523.4 370.6C1523.4 372.6 1523.2 372 1522.9 372.8C1522.6 373.6 1522.1 374.4 1521.4 375.1C1520.8 375.8 1519.9 376.5 1518.9 376.9C1517.9 377.4 1516.6 377.6 1515.2 377.6C1513.8 377.6 1511.8 377.3 1510.5 376.7C1509 376.1 1507.8 375.8 1506.8 375.8C1505.8 375.8 1505.5 375.8 1505 376.2C1504.5 376.5 1504.2 377 1504.2 377.8C1504.2 378.6 1504.6 379.3 1505.4 379.8C1506.1 380.3 1507 380.8 1508.1 381.2C1509.2 381.5 1510.4 381.7 1511.6 381.9C1512.8 381.9 1513.9 382.1 1514.9 382.1C1517.9 382.1 1520.5 381.8 1522.8 381.2C1525.1 380.5 1526.9 379.7 1528.4 378.6C1529.9 377.6 1531 376.3 1531.8 375C1532.5 373.6 1532.9 372.2 1532.9 370.7C1532.9 367.8 1532.4 365.5 1531.3 363.8C1530.2 362.1 1528.8 360.7 1527.3 359.7C1525.7 358.7 1523.9 358 1522 357.3C1520.1 356.8 1518.3 356.1 1516.7 355.4C1515.1 354.8 1513.7 353.9 1512.6 352.8C1511.5 351.7 1511 350.2 1511 348.1C1511 346 1511.3 346 1511.8 345.3C1512.3 344.6 1513 344 1513.8 343.6C1514.5 343.1 1515.3 342.9 1516 342.7C1516.7 342.5 1517.3 342.4 1517.6 342.4C1518.9 342.4 1520 342.4 1520.8 342.7C1521.6 343 1522.5 343.1 1523.5 343.1C1524.5 343.1 1525.2 342.9 1525.9 342.6C1526.5 342.3 1526.9 341.8 1526.9 341C1526.9 340.2 1526.5 339.6 1525.9 339.1C1525.2 338.6 1524.4 338.2 1523.4 337.8C1522.4 337.4 1521.3 337.2 1520.3 337C1519.2 336.8 1518.3 336.7 1517.7 336.7M1496.7 355.4C1496.7 349.4 1495.3 344.9 1492.5 341.9C1489.7 338.9 1485.8 337.4 1480.6 337.4C1475.4 337.4 1475.6 337.6 1473.5 338C1471.4 338.5 1469.6 338.9 1468.1 339.5C1466.6 340.1 1465.5 340.7 1464.6 341.2C1463.8 341.7 1463.4 342.1 1463.4 342.3C1463.4 342.5 1463.4 342.6 1463.8 342.7C1464.1 342.7 1464.3 342.9 1464.4 342.9C1465.5 342.9 1467 342.6 1469 342C1471 341.4 1473.5 341.1 1476.6 341.1C1479.7 341.1 1478.5 341.3 1479.8 341.6C1481 342 1482.2 342.5 1483.3 343.1C1484.4 343.8 1485.4 344.7 1486.2 345.7C1487 346.8 1487.4 348.1 1487.4 349.4C1487.4 350.7 1487 351.9 1486.4 352.9C1485.7 353.9 1484.8 354.7 1483.8 355.4C1482.8 356 1481.6 356.6 1480.3 356.9C1479 357.3 1477.8 357.4 1476.8 357.4C1474.7 357.4 1472.6 357.6 1470.4 357.9C1468.1 358.3 1466.1 358.9 1464.3 359.8C1462.5 360.7 1461 362 1459.8 363.5C1458.6 365 1458 367.1 1458 369.7C1458 372.3 1458.5 374.2 1459.6 375.8C1460.6 377.3 1461.9 378.6 1463.2 379.4C1464.6 380.2 1465.9 380.8 1467.3 381C1468.7 381.4 1469.7 381.5 1470.3 381.5C1470.9 381.5 1471.8 381.5 1472.7 381.2C1473.6 381.2 1474.5 380.8 1475.5 380.6C1476.5 380.3 1477.4 380.1 1478.2 379.6C1479 379.1 1479.7 378.7 1480.4 378.1C1479 378.3 1477.5 378.1 1475.9 377.9C1474.4 377.6 1472.9 377.2 1471.5 376.4C1470.1 375.7 1469 374.7 1468.2 373.5C1467.3 372.3 1466.8 370.9 1466.8 369.2C1466.8 367.5 1467.3 365.8 1468.3 364.6C1469.3 363.3 1470.4 362.2 1471.8 361.4C1473.1 360.6 1474.3 360 1475.6 359.6C1476.9 359.2 1477.8 359.1 1478.4 359.1C1479 359.1 1480.1 359.3 1481.2 359.6C1482.2 360 1483.2 360.5 1484.2 361.1C1485.2 361.8 1486 362.6 1486.7 363.6C1487.3 364.6 1487.6 365.7 1487.6 367C1487.6 368.3 1487.4 369.6 1487 370.8C1486.5 372 1486 373.1 1485.5 374C1484.9 375 1484.3 375.7 1483.8 376.4C1483.2 377 1482.8 377.4 1482.6 377.6C1483.1 378.1 1483.8 378.5 1484.6 378.8C1485.4 379.1 1486.2 379.3 1487.1 379.4C1487.9 379.6 1488.7 379.7 1489.6 379.8C1490.3 379.8 1490.9 379.8 1491.3 379.8C1493.2 379.8 1494.5 379.2 1495.3 377.9C1496 376.7 1496.4 375.4 1496.4 373.8V355.5L1496.7 355.4Z" fill="#434242"/>
<path d="M1575.6 355.4C1575.6 349.4 1574.2 344.9 1571.4 341.9C1568.6 338.9 1564.7 337.4 1559.5 337.4C1554.3 337.4 1554.5 337.6 1552.4 338C1550.3 338.5 1548.5 338.9 1547 339.5C1545.5 340.1 1544.4 340.7 1543.5 341.2C1542.7 341.7 1542.3 342.1 1542.3 342.3C1542.3 342.5 1542.3 342.6 1542.7 342.7C1543 342.7 1543.2 342.9 1543.3 342.9C1544.4 342.9 1545.9 342.6 1547.9 342C1549.9 341.4 1552.4 341.1 1555.5 341.1C1558.6 341.1 1557.4 341.3 1558.7 341.6C1559.9 342 1561.1 342.5 1562.2 343.1C1563.3 343.8 1564.3 344.7 1565.1 345.7C1565.9 346.8 1566.3 348.1 1566.3 349.4C1566.3 350.7 1565.9 351.9 1565.3 352.9C1564.6 353.9 1563.7 354.7 1562.7 355.4C1561.7 356 1560.5 356.6 1559.2 356.9C1557.9 357.3 1556.7 357.4 1555.7 357.4C1553.6 357.4 1551.5 357.6 1549.3 357.9C1547 358.3 1545 358.9 1543.2 359.8C1541.4 360.7 1539.9 362 1538.7 363.5C1537.5 365 1536.9 367.1 1536.9 369.7C1536.9 372.3 1537.4 374.2 1538.5 375.8C1539.5 377.3 1540.8 378.6 1542.1 379.4C1543.5 380.2 1544.8 380.8 1546.2 381C1547.6 381.4 1548.6 381.5 1549.2 381.5C1549.8 381.5 1550.7 381.5 1551.6 381.2C1552.5 381.2 1553.4 380.8 1554.4 380.6C1555.4 380.3 1556.3 380.1 1557.1 379.6C1557.9 379.1 1558.6 378.7 1559.3 378.1C1557.9 378.3 1556.4 378.1 1554.8 377.9C1553.3 377.6 1551.8 377.2 1550.4 376.4C1549 375.7 1547.9 374.7 1547.1 373.5C1546.2 372.3 1545.7 370.9 1545.7 369.2C1545.7 367.5 1546.2 365.8 1547.2 364.6C1548.2 363.3 1549.3 362.2 1550.7 361.4C1552 360.6 1553.2 360 1554.5 359.6C1555.8 359.2 1556.7 359.1 1557.3 359.1C1557.9 359.1 1559 359.3 1560.1 359.6C1561.1 360 1562.1 360.5 1563.1 361.1C1564.1 361.8 1564.9 362.6 1565.6 363.6C1566.2 364.6 1566.5 365.7 1566.5 367C1566.5 368.3 1566.3 369.6 1565.9 370.8C1565.4 372 1564.9 373.1 1564.4 374C1563.8 375 1563.2 375.7 1562.7 376.4C1562.1 377 1561.7 377.4 1561.5 377.6C1562 378.1 1562.7 378.5 1563.5 378.8C1564.3 379.1 1565.1 379.3 1566 379.4C1566.8 379.6 1567.6 379.7 1568.5 379.8C1569.2 379.8 1569.8 379.8 1570.2 379.8C1572.1 379.8 1573.4 379.2 1574.2 377.9C1574.9 376.7 1575.3 375.4 1575.3 373.8V355.5L1575.6 355.4Z" fill="#434242"/>
<path d="M970.3 325.3C969.2 325.3 968.2 325.5 967.4 325.9C966.5 326.4 966.1 327 966.1 327.7C966.1 328.4 966.5 329 967.4 329.3C968.2 329.6 969.2 329.8 970.3 329.8H989.6C990.6 329.8 991.7 329.6 992.6 329.2C993.5 328.9 993.9 328.3 993.9 327.7C993.9 327.1 993.5 326.3 992.6 325.9C991.7 325.5 990.7 325.3 989.6 325.3H970.3Z" fill="#434242"/>
<path d="M1522.5 388.6C1522.5 387.4 1522 386.4 1521.2 385.6C1520.4 384.8 1519.4 384.4 1518.4 384.4C1517.4 384.4 1516.3 384.9 1515.6 385.7C1514.9 386.5 1514.5 387.5 1514.5 388.6C1514.5 389.7 1514.9 390.5 1515.7 391.3C1516.5 392.1 1517.4 392.5 1518.4 392.5C1519.4 392.5 1520.4 392.1 1521.2 391.3C1522 390.5 1522.5 389.6 1522.5 388.6Z" fill="#434242"/>
<path d="M98.2 60.4001C95.6 62.3001 93.7 65.3 92.2 70.2C90.7 75.1 89.6 80.8 88.8 87.2C88 94 87.7 101.2 87.3 109.1C86.9 117 86.5 124.9 86.5 132.5V171C87.6 171.4 89.9 171.4 94 171.4C98.1 171.4 102.7 171.4 108 171C112.9 171 118.6 170.6 124.2 170.2C129.9 169.8 135.1 169.4 140 169.1C144.9 168.7 148.7 168 151.7 167.6C154.7 167.2 156.2 166.5 156.2 166.1C155.8 162.7 154.3 157.4 152 150.3C149.7 143.1 147.1 135.6 143.7 126.9C140.3 118.6 136.5 109.9 132.4 101.2C128.3 92.5 124.1 85 120 78.2C115.9 71.8 111.7 66.5 107.9 63.1C103.8 59.7 100.7 58.6001 98.0999 60.5001M202.3 338C199.3 338.4 197 338 195.1 336.5C193.2 334.6 192.1 332.7 190.9 330.1C189.8 327.5 189.4 324.4 189 321.4C188.6 318 188.6 315 188.6 312.3C188.6 309.6 188.2 304.8 187.8 297.2C187 289.3 185.9 280.2 184.4 270C182.9 259.8 180.6 248.5 178 236.8C175.4 225.1 171.6 213.8 167.1 203.2C166 201.3 161.1 200.9 152.4 202.1C143.7 203.2 132.4 204 118.8 204C114.6 203.6 110.5 203.6 106.4 204C102.2 204.4 98.4999 205.1 95.0999 205.5C91.6999 205.9 89.1 206.6 87.2 207C84.9 207.4 83.8 207.8 83.8 208.1C83.4 211.5 83.4 215.6 83 220.5C82.6 225.8 81.8999 231.4 81.0999 237.1C79.9999 242.8 78.8 248.8 77.3 254.5C75.4 260.2 73.2 265.4 70.5 270C67.9 274.5 64.5 278.3 60.3 280.9C56.1 283.5 51.1999 284.7 45.5999 284.3C41.7999 283.9 39.2 280.1 37.7 273C35.8 265.8 34.7 257.5 34.3 248.1C33.5 238.7 33.2 230 33.5 221.3C33.9 213 33.9 207.7 33.9 205.1C19.9 203.2 10.9 200.9 5.99997 197.9C1.09997 194.9 -0.800016 191.9 0.699984 188.5C2.19998 185.5 6.39995 182.5 13.0999 179.8C19.8999 177.2 28.2 174.9 38 173C39.1 163.9 40.3 152.6 41.4 139.1C42.5 125.5 44.8 111.6 47.4 97.6C50 83.6 53.4 70.1 58.3 57.6C62.8 45.2 69.2 35.7001 77.2 28.9001C81.4 25.5001 87 24.4001 93.8 25.5001C100.6 26.6001 107.8 29.3001 115.3 33.4001C122.5 37.6001 129.6 43.2001 136.8 50.0001C144 56.8001 150 64.3 154.9 72.6C157.9 78.3 161.3 85.4 164.7 94.1C168.1 102.8 171.1 111.8 174.5 120.9C177.5 130.3 180.5 138.6 183.2 146.6C185.8 154.5 188.1 160.2 190 163.6C190.4 164.7 192.6 165.1 196 164.7C199.4 164.3 203.5 164.3 207.7 164.7C211.8 165.1 215.6 165.8 219 167.3C222.4 168.8 224.3 171.8 224.7 176.4C225.1 180.2 223.6 183.6 220.5 186.2C217.1 189.2 213.7 191.5 209.9 193.4C206.1 195.3 202.7 196.8 199.3 197.9C195.9 199 194.4 199.4 194.4 199.8C197.4 215.6 200.4 231.5 203.1 247.3C205.7 263.5 208 277.9 209.1 291.1C210.2 303.9 210.6 314.5 209.5 323.2C208.4 331.9 206.1 336.8 202 337.9L202.3 338Z" fill="#E5316B"/>
<path d="M282.6 179.6C289 168.7 295 157.7 300.7 146C305.6 136.2 310.1 125.3 314.7 113.6C319.2 101.9 322.6 90.6001 324.5 79.3001C325.6 73.6001 326.4 68.0001 327.5 62.3001C328.3 56.6001 328.6 51 328.6 46.1C328.2 41.2 327.5 37 325.6 33.7C323.7 30.3 321.1 28.4 316.9 28C311.6 27.6 307.1 29.1001 302.9 33.3001C298.8 37.4001 295 43.5 292.3 50.7C289.3 58.2 287 66.9 285.1 77.1C283.2 87.3 282.1 98.2 281.3 109.5C280.5 121.2 280.2 132.9 280.5 145C280.9 157.1 281.3 168.8 282.4 179.7M355.4 58.1C354.3 69.4 352.8 80.4 350.1 90.5C347.5 100.7 344.8 110.5 341.4 119.9C338 129.3 334.2 138 330.1 146.3C325.9 154.6 322.2 162.1 318 168.9C308.6 185.1 298 199.5 286.3 212.7C286.3 214.6 286.7 216.8 287.4 219.5C287.8 222.1 288.9 225.2 290.4 228.6C291.9 232.4 294.2 236.9 297.6 241.8C304 252.4 311.6 258.8 319.5 261.4C327.4 264 335 264.4 342.5 262.2C349.7 260.3 356.1 256.5 361.7 250.9C367.4 245.6 371.1 240.3 373 234.7C374.9 229 377.2 225.3 379 223.4C380.9 221.5 382.8 221.1 384.7 221.9C386.2 223 387.3 224.9 388.5 227.6C389.3 230.2 389.6 233.3 389.3 236.7C385.2 248 379.5 257.8 373.1 266.5C370.5 270.3 367.1 274 363.3 277.4C359.5 280.8 355.4 284.2 350.9 286.8C346.4 289.4 341.5 291.7 336.2 293.6C330.5 295.1 324.9 295.9 318.5 295.5C302.3 295.1 289.1 291.4 278.5 283.8C267.6 276.3 258.9 266.4 252.5 254.8C246.1 243.1 241.2 229.5 238.5 214.4C235.9 199.7 234.3 184.6 234 169.1C233.6 153.6 234 138.9 235.9 124.6C237.4 110.6 239.3 98.2 241.6 87.6C244.2 76.7 247.6 65.7001 251.8 54.8001C255.9 43.9001 260.9 34.4 267.3 26.1C273.3 17.8 280.5 11.4 289.2 6.50001C297.5 1.60001 307.3 0.0999619 318.6 1.19996C326.9 2.29996 334.1 5.40003 340.1 9.90003C345 13.7 349.5 19.3 352.9 26.9C356.3 34.8 357.4 45 355.5 58.2L355.4 58.1Z" fill="#E5316B"/>
<path d="M377.6 52.8001C380.2 47.1001 384.8 43.7 390.4 42.6C396.1 41.5 401.3 41.5 407 43C412.3 44.5 416.8 47.1 421 50.5C424.8 54.3 426.3 58.4001 425.5 63.3001C424.4 69.0001 421.3 73.9 416.1 78C410.4 82.1 402.5 84 391.6 82.9C388.6 82.5 385.9 81.4 383.7 79.5C381.1 77.6 379.2 75 377.7 72C376.2 69.4 375.4 66 375.4 62.6C375 59.2 375.8 55.8001 377.7 52.8001M360.6 187.5C361.4 181.5 362.5 175.8 363.6 170.1C364.7 164.4 366.6 159.5 368.5 154.6C370.4 149.7 372.3 145.5 374.5 142.2C376.8 138.8 379.4 136.5 382 135C384.6 133.9 388.4 132.4 392.9 130.8C397.1 129.7 401.2 128.9 405.3 129.3C409.1 129.7 412.1 131.6 414 134.6C415.9 138 415.9 143.3 413.6 151.2C412.5 155.3 411.7 160.6 411 167C410.2 173.4 409.9 180.6 409.9 187.7C409.5 195.2 409.9 202.8 410.3 210C410.7 217.5 411.8 224.3 413.3 230.7C414.4 237.1 416.3 242.4 419 246.5C421.3 251 424.3 254 427.7 255.2C434.9 257.8 441.3 257.5 446.6 254.4C451.9 251.4 456.8 246.9 461.3 240.4C463.2 237.8 465.1 235.1 467.7 233.2C470.3 231.3 472.2 230.6 474.1 230.9C475.6 231.3 476.4 232.8 476.4 235.8C476.4 238.8 474.9 243.7 471.5 250.9C468.1 258.1 463.6 264.5 458.3 270.1C452.6 275.8 446.6 279.9 440.2 282.9C433.4 286.3 426.2 288.2 418.7 288.6C411.2 289 403.6 287.8 396.1 285.2C388.6 282.6 382.5 279.2 377.6 274.3C372.7 269.8 369.3 263.7 366.7 255.8C364.1 247.9 362.2 238.4 361.4 227.1C360.3 216.2 360.3 202.6 360.6 187.1V187.5Z" fill="#E5316B"/>
<path d="M559 126.8C558.2 130.2 556 132.8 552.6 134.7C549.2 137 545.1 139.2 540.5 141.5C536 143.8 531.4 146.4 526.5 149C521.6 151.6 517.8 155.4 514.4 159.9C509.5 167.1 505.7 175.7 503.8 185.9C501.9 196.1 500.8 205.5 501.2 214.6C501.2 224 502.3 232 504.6 238.4C506.5 245.2 509.1 248.6 512.5 248.6C515.9 248.6 520.8 246.7 525.3 242.9C529.4 239.1 533.6 234.6 537 229.7C540.4 224.8 543.4 219.9 545.7 214.6C548 209.7 549.1 205.5 549.1 202.9C549.1 200.3 549.1 196.1 548.7 191.2C548.3 186.3 548.7 181.8 549.1 176.9C549.5 172 550.2 167.8 551.4 164.5C552.5 161.1 554.4 159.2 557.1 158.8C559.7 158.4 563.1 158 567.3 156.9C571.1 155.8 574.8 155.8 578.2 156.5C581.6 157.3 584.6 159.5 586.9 163.7C588.8 167.9 589.5 175 589.2 185.2C588.4 205.6 589.6 221 592.2 231.2C594.8 241.8 600.5 247.8 608.4 249.7C614.1 250.8 619 249.3 623.5 245.5C627.6 242.1 631.8 238 635.2 233.4C638.6 228.9 641.6 224.7 644.3 221C646.9 217.6 648.8 216.1 650.3 216.8C652.2 217.6 652.6 220.6 652.2 226.2C651.8 231.9 649.9 237.9 646.5 244.7C643.1 251.9 638.6 258.7 632.2 265.4C625.8 272.6 617.5 277.8 607.3 281.6C602 283.5 597.1 284.6 592.6 284.6C588.1 284.6 583.9 283.8 580.5 282.7C576.7 281.6 573.3 279.7 570.7 277.4C568.1 275.1 565.4 272.5 563.2 269.9C558.3 263.5 554.1 255.9 551.1 246.5C548.5 252.5 545.1 257.8 540.5 262.3C536.7 266.5 531.8 269.8 525.8 273.2C519.8 276.6 512.2 278.9 503.5 279.2C494.8 279.6 486.5 276.6 478.6 270.9C470.7 265.2 464.6 257.3 460.1 247.5C455.2 237.7 452.9 226.4 452.6 213.2C452.2 200.4 454.9 186.8 460.9 172.5C465 163.1 470.3 155.1 476.7 148.7C483.1 142.3 490.3 136.6 497.8 132.5C505 128.4 512.5 125.3 520.1 123.4C527.3 121.5 534.1 120.8 540.1 120.4C545.8 120 550.7 120.4 554.4 121.5C557.8 122.6 559.3 124.5 558.9 126.4" fill="#E5316B"/>
<path d="M717 381.4C718.5 377.3 719.6 371.6 720 365.2C720.4 358.4 720.4 351.6 720.4 345.2C720 337.7 719.6 329.7 719.3 321.4C714 325.9 709.5 330.8 705.3 335.7C701.9 339.8 698.9 345.1 696.2 350.8C693.6 356.5 692.4 362.9 692.8 369.3C693.2 375.7 694.7 380.2 697 383.3C699.3 385.9 701.9 387.8 704.5 388.2C707.1 388.6 709.4 387.8 712 386.7C714.3 385.2 715.8 383.3 716.9 381.4M794.7 243C800.4 240.7 804.5 239.6 807.5 240C810.5 240.4 812.4 241.1 813.2 242.6C814 244.5 813.6 246.4 812.4 249C810.9 251.6 808.6 253.9 805.6 256.2C803 258.1 799.9 260.3 796.5 263.4C792.7 266.4 789 269.4 785.2 272.8C781 276.2 777.3 279.6 773.9 283C770.1 286.4 767.1 289 764.5 290.9C766.4 302.6 767.1 314.7 767.5 327.1C767.9 339.2 767.1 350.9 765.2 362.2C763.3 373.1 760.7 383.7 756.5 393.1C752.4 402.5 747.1 410.1 740.3 416.1C730.9 424.8 721.1 429.7 711.3 430.8C701.5 431.9 692.8 430.4 685.3 425.9C677.8 421.4 671.7 414.6 667.6 405.2C663.5 395.8 661.9 384.5 663.8 371.6C665.7 358.4 669.8 347.1 676.2 336.9C682.2 326.7 688.6 318.4 695.4 311.6C703.3 303.7 712 296.5 721.4 290.9C721 289 720.6 286 719.9 282.6C719.5 279.6 718.4 275.8 717.3 270.9C716.2 266.4 714.3 260.3 712.4 253.2C711.3 249 709.8 244.9 707.9 240.8C706 237 704.1 233.6 702.2 231C699.9 227.6 697.7 225 695.8 222.3C691.7 226.8 687.5 231 683.4 234.4C680 237.4 675.9 240.1 671.7 242.3C667.5 244.9 663.4 246.1 659.6 246.1C655.8 246.1 650.9 243.8 646 239.7C641.1 235.6 636.6 229.9 632.8 222.7C628.6 215.5 625.6 207.6 623.7 198.6C621.4 189.5 621.1 180.1 622.6 170.7C624.5 161.3 626.7 153.3 629.4 147.7C632 142 635.1 137.1 638.5 133.7C641.9 130.3 645.3 128 649.1 126.5C652.9 125 656.6 123.9 660.4 123.1C666.1 122 672.5 122.7 680.4 125.4C687.9 128 695.1 131.1 702.3 134.8C709.1 138.9 715.1 142.7 720 146.9C724.9 151 727.2 154.4 726.8 156.7C726.4 159 723.8 159.7 718.9 159C713.6 158.6 707.6 157.9 701.2 156.7C694.4 155.6 688 155.2 681.6 155.2C675.2 155.2 670.7 157.1 668 161.2C665.4 165.3 663.5 169.9 662 175.5C660.5 181.2 659.7 186.4 659.4 192.1C659 197.8 659 202.7 660.2 207.2C661.3 212.1 663.2 215.5 665.9 217.8C667.4 218.9 669.7 218.6 672.3 216.3C674.9 214.4 678 211.8 681.4 208.4C684.8 205.4 688.9 202.4 693.1 199.3C697.3 196.7 702.2 194.8 707.1 194C712 193.6 716.9 194.8 722.2 197.8C727.5 201.2 732.8 207.2 738.4 216.3C741.8 221.6 745.2 227.6 749 234.4C752.4 241.6 755.8 251.4 758.4 264.2C764.8 260.1 771.2 256.3 776.9 252.5C782.6 249.1 788.6 245.7 795 243.1L794.7 243Z" fill="#E5316B"/>
<path d="M888.2 126.8C887.4 130.2 885.2 132.8 881.8 134.7C878.4 137 874.3 139.2 869.7 141.5C865.2 143.8 860.6 146.4 855.7 149C850.8 151.6 847 155.4 843.6 159.9C838.7 167.1 834.9 175.7 833 185.9C831.1 196.1 830 205.5 830.4 214.6C830.4 224 831.5 232 833.8 238.4C835.7 245.2 838.3 248.6 841.7 248.6C845.1 248.6 850 246.7 854.5 242.9C858.6 239.1 862.8 234.6 866.2 229.7C869.6 224.8 872.6 219.9 874.9 214.6C877.2 209.7 878.3 205.5 878.3 202.9C878.3 200.3 878.3 196.1 877.9 191.2C877.5 186.3 877.9 181.8 878.3 176.9C878.7 172 879.4 167.8 880.6 164.5C881.7 161.1 883.6 159.2 886.3 158.8C888.9 158.4 892.3 158 896.5 156.9C900.3 155.8 904 155.8 907.4 156.5C910.8 157.3 913.8 159.5 916.1 163.7C918 167.9 918.7 175 918.4 185.2C917.6 205.6 918.8 221 921.4 231.2C924 241.8 929.7 247.8 937.6 249.7C943.3 250.8 948.2 249.3 952.7 245.5C956.8 242.1 961 238 964.4 233.4C967.8 228.9 970.8 224.7 973.5 221C976.1 217.6 978 216.1 979.5 216.8C981.4 217.6 981.8 220.6 981.4 226.2C981 231.9 979.1 237.9 975.7 244.7C972.3 251.9 967.8 258.7 961.4 265.4C955 272.6 946.7 277.8 936.5 281.6C931.2 283.5 926.3 284.6 921.8 284.6C917.3 284.6 913.1 283.8 909.7 282.7C905.9 281.6 902.5 279.7 899.9 277.4C897.3 275.1 894.6 272.5 892.4 269.9C887.5 263.5 883.3 255.9 880.3 246.5C877.7 252.5 874.3 257.8 869.7 262.3C865.9 266.5 861 269.8 855 273.2C849 276.6 841.4 278.9 832.7 279.2C824 279.6 815.7 276.6 807.8 270.9C799.9 265.2 793.8 257.3 789.3 247.5C784.4 237.7 782.1 226.4 781.8 213.2C781.4 200.4 784.1 186.8 790.1 172.5C794.3 163.1 799.5 155.1 805.9 148.7C812.3 142.3 819.5 136.6 827 132.5C834.2 128.4 841.7 125.3 849.3 123.4C856.5 121.5 863.3 120.8 869.3 120.4C875 120 879.9 120.4 883.6 121.5C887 122.6 888.5 124.5 888.1 126.4" fill="#E5316B"/>
<path d="M998.6 293.9C995.2 293.5 992.2 290.9 989.9 285.2C987.3 279.5 985.4 272.8 984.2 264.8C982.7 256.9 981.6 248.6 980.8 239.1C980 230 979.7 221.4 979.3 213.4C978.9 205.5 978.5 198.7 978.2 193C977.8 187.3 977.4 184.3 977.1 183.6C973.7 178.3 971.8 173 971.8 167.8C971.8 162.6 972.6 158 974.1 153.1C975.6 148.6 977.5 144.4 979.4 140.7C981.3 136.9 982 133.9 982.4 131.6C983.2 125.9 983.9 119.2 984.3 110.5C984.7 101.8 985.1 93.0999 985.8 84.0999C986.2 74.9999 986.9 66.3999 988.1 57.6999C989.2 49.3999 990.4 42.6 992.3 37C994.2 30.2 997.6 25.7 1001.7 23C1005.9 20.4 1010 19.6 1014.1 20C1018.3 20.8 1022 22.6 1025.4 26C1028.4 29.4 1029.9 33.1999 1030.3 38.0999C1030.7 43.7999 1030.7 50.5 1031.1 58.5C1031.5 66.4 1031.5 74 1031.9 81.5C1031.9 89 1031.9 95.8 1032.3 101.9V114C1036.4 111.4 1040.2 108 1043.6 104.2C1047 100.8 1051.1 96.7 1055.3 91.8C1059.4 86.9 1064.7 81.6 1070.8 76C1076.5 70.3 1084 64.3 1092.7 57.9C1099.5 53 1107 48.1 1115 43.9C1122.9 39.8 1130.8 35.9999 1138.8 32.5999C1142.6 31.4999 1146 30.6999 1149 31.0999C1152 31.4999 1154.3 32.6 1155.8 34.5C1156.9 36.4 1157.3 38.6 1156.9 41.3C1156.5 44.3 1154.6 47.2999 1151.2 50.6999C1146.3 55.5999 1139.9 61.3 1132.3 68.4C1124.4 75.6 1116.5 82.6999 1107.8 90.6999C1099.1 98.5999 1090.8 106.5 1082.1 114.5C1073.4 122.8 1065.9 130.7 1059.1 137.9C1052.3 145.1 1047 151.9 1042.9 157.5C1038.7 163.2 1036.9 167.7 1037.2 170.7C1038 177.1 1039.8 183.1 1043.2 188.1C1046.6 193.4 1050 199.4 1054.1 205.8C1056.7 210 1060.1 214.1 1064.3 217.9C1068.4 221.7 1072.6 224.7 1077.5 226.6C1082.4 228.9 1087.3 230 1093 230C1098.7 230 1103.6 228.1 1109.2 224.7C1117.1 219.8 1124.3 217.9 1131.1 218.3C1137.5 219.1 1143.2 221.3 1147.7 224.7C1151.8 228.1 1154.9 232.2 1156 237.1C1157.1 242 1156 245.8 1153 249.2C1143.9 258.6 1135.3 265.4 1126.6 268.8C1117.9 272.2 1110 273.7 1102.1 272.6C1094.2 271.5 1086.3 268.8 1079.1 264.3C1071.9 259.8 1064.8 254.1 1058.4 247.7C1052 241.3 1046 234.1 1040.3 226.2C1034.6 218.7 1029.7 211.1 1025.2 203.9C1024.8 203.1 1024.4 204.7 1024.1 208.8C1023.7 213 1023.7 218.6 1023.3 225.4C1022.9 232.2 1022.2 239.7 1021 247.7C1019.9 255.6 1018.7 263.2 1016.9 270.3C1015 277.5 1012.8 283.1 1010.1 287.7C1007.1 292.2 1003.3 294.5 998.8 294.1" fill="#434242"/>
<path d="M1268.7 126.8C1267.9 130.2 1265.7 132.8 1262.3 134.7C1258.9 137 1254.8 139.2 1250.2 141.5C1245.7 143.8 1241.1 146.4 1236.2 149C1231.3 151.6 1227.5 155.4 1224.1 159.9C1219.2 167.1 1215.4 175.7 1213.5 185.9C1211.6 196.1 1210.5 205.5 1210.9 214.6C1210.9 224 1212 232 1214.3 238.4C1216.2 245.2 1218.8 248.6 1222.2 248.6C1225.6 248.6 1230.5 246.7 1235 242.9C1239.1 239.1 1243.3 234.6 1246.7 229.7C1250.1 224.8 1253.1 219.9 1255.4 214.6C1257.7 209.7 1258.8 205.5 1258.8 202.9C1258.8 200.3 1258.8 196.1 1258.4 191.2C1258 186.3 1258.4 181.8 1258.8 176.9C1259.2 172 1259.9 167.8 1261.1 164.5C1262.2 161.1 1264.1 159.2 1266.8 158.8C1269.4 158.4 1272.8 158 1277 156.9C1280.8 155.8 1284.5 155.8 1287.9 156.5C1291.3 157.3 1294.3 159.5 1296.6 163.7C1298.5 167.9 1299.2 175 1298.9 185.2C1298.1 205.6 1299.3 221 1301.9 231.2C1304.5 241.8 1310.2 247.8 1318.1 249.7C1323.8 250.8 1328.7 249.3 1333.2 245.5C1337.3 242.1 1341.5 238 1344.9 233.4C1348.3 228.9 1351.3 224.7 1354 221C1356.6 217.6 1358.5 216.1 1360 216.8C1361.9 217.6 1362.3 220.6 1361.9 226.2C1361.5 231.9 1359.6 237.9 1356.2 244.7C1352.8 251.9 1348.3 258.7 1341.9 265.4C1335.5 272.6 1327.2 277.8 1317 281.6C1311.7 283.5 1306.8 284.6 1302.3 284.6C1297.8 284.6 1293.6 283.8 1290.2 282.7C1286.4 281.6 1283 279.7 1280.4 277.4C1277.8 275.1 1275.1 272.5 1272.9 269.9C1268 263.5 1263.8 255.9 1260.8 246.5C1258.2 252.5 1254.8 257.8 1250.2 262.3C1246.4 266.5 1241.5 269.8 1235.5 273.2C1229.5 276.6 1221.9 278.9 1213.2 279.2C1204.5 279.6 1196.2 276.6 1188.3 270.9C1180.4 265.2 1174.3 257.3 1169.8 247.5C1164.9 237.7 1162.6 226.4 1162.3 213.2C1161.9 200.4 1164.6 186.8 1170.6 172.5C1174.8 163.1 1180 155.1 1186.4 148.7C1192.8 142.3 1200 136.6 1207.5 132.5C1214.7 128.4 1222.2 125.3 1229.8 123.4C1237 121.5 1243.8 120.8 1249.8 120.4C1255.5 120 1260.4 120.4 1264.1 121.5C1267.5 122.6 1269 124.5 1268.6 126.4" fill="#434242"/>
<path d="M1336.1 138.9C1333.5 137.4 1330.8 136.6 1328.6 136.3C1326.3 135.9 1324.1 135.9 1322.2 135.9C1320.3 135.9 1318.8 135.5 1317.3 135.1C1316.2 134.7 1315 133.6 1313.9 131.7C1313.1 129.8 1314.3 127.6 1317.3 124.5C1320.7 121.5 1324.8 118.8 1330.1 117C1335.4 115.1 1341.4 114 1347.8 114.4C1354.2 114.8 1360.6 117.4 1366.7 122.3C1372 126.8 1376.5 131 1379.9 135.1C1383.3 139.2 1385.9 143 1387.8 146.4C1390.1 150.2 1391.6 153.9 1392.7 157.3C1399.9 150.5 1407 144.9 1414.6 140.3C1421 136.1 1428.6 133.1 1436.5 130.5C1444.4 127.9 1452.7 127.9 1460.6 130.1C1462.5 130.9 1463.6 132.4 1463.6 134.6C1463.2 137.2 1462.5 139.9 1460.6 142.5C1458.7 145.1 1456.1 147.8 1452.7 150.4C1449.3 153 1445.5 154.5 1441 155.7C1432.3 157.6 1425.2 161.4 1420.3 167C1415 172.7 1410.9 179.1 1408.2 186.2C1405.6 193.7 1403.7 201.7 1402.9 210C1402.1 218.7 1401.8 226.6 1401.8 234.5C1402.2 250.7 1399.9 262.8 1395 270.7C1390.1 278.6 1383.7 283.1 1375.8 283.5C1366.4 283.9 1359.6 279.7 1355.1 270.7C1350.6 261.6 1348.3 246.2 1348.3 224.7C1348.7 211.1 1348.7 199.4 1348.7 189.2C1348.7 179 1348.3 170.7 1347.6 163.5C1346.8 156.7 1345.7 151.4 1343.8 147.3C1341.9 143.2 1339.6 140.5 1336.3 138.6" fill="#434242"/>
<path d="M1485.4 14.6999C1486.2 10.1999 1488.8 7.49992 1493.3 7.19992C1497.8 6.79992 1502.7 7.59992 1507.6 10.1999C1512.5 12.7999 1517.4 16.2 1521.6 20.8C1525.7 25.7 1528 30.6 1528.4 36.3C1528.8 42 1528.8 48 1529.2 54C1529.6 60 1529.6 65.2999 1530 70.1999C1530.4 75.8999 1530.4 81.5 1530.8 86.4C1539.5 85.6 1547 85.2999 1553.4 85.5999C1559.1 85.9999 1564.3 86.7 1568.9 87.9C1573.4 89 1575.7 91.2999 1575.7 94.6999C1575.7 98.0999 1573.4 101.1 1569.3 103.8C1564.8 106.4 1559.9 108.3 1554.2 110.2C1547.8 112.1 1540.2 114 1532.3 115.5C1532.7 132.5 1533.4 148.7 1533.8 164.5C1534.2 178.5 1534.2 192.8 1534.2 207.9C1533.8 223 1533.4 236.2 1532.3 247.5C1531.2 258.8 1529.3 267.1 1526.6 272.4C1524 277.7 1520.9 281.1 1517.5 282.6C1514.1 284.1 1510.7 284.5 1507.3 283.4C1503.9 282.6 1500.5 281.5 1497.5 280.4C1496 280 1494.5 277.4 1493.4 272.5C1492.3 267.6 1491.1 261.6 1490.4 254C1489.6 246.5 1488.9 237.8 1488.5 228.3C1488.1 218.9 1487.7 209.4 1487.4 199.6C1486.6 176.6 1486.3 150.6 1486.3 121.9C1479.5 123.4 1473.1 124.2 1467.4 124.2C1461.7 124.2 1457.6 123.4 1453.4 121.6C1449.3 120.1 1446.6 117.1 1445.5 112.5C1444.7 109.1 1446.3 105.7 1450 103.1C1454.2 100.5 1458.7 97.8 1463.6 95.9C1469.3 93.6 1476 91.7 1484 89.9V83.9C1484 82 1484 80.0999 1484.4 78.1999V73.6999C1484.4 63.4999 1484.4 55.5999 1484 49.1999C1483.6 42.7999 1483.6 37.5 1483.6 33.4C1483.6 29.3 1483.6 25.8999 1484 23.1999C1484.4 20.5999 1484.8 17.9 1485.5 14.9" fill="#434242"/>
<path d="M689.6 77.4C692.8 78.1 696.5 79.4 700.5 80.9C704.5 82.4 707.9 83.9 710.7 85.1C712.9 86.3 714.4 88.1 715.2 89.8C715.9 91.5 715.9 93.5 715.4 95.3C714.9 97 713.9 98.5 712.4 99.8C710.9 101 709.2 101.8 706.9 101.8C697.7 102.5 689.3 103.3 682.1 104C674.7 104.7 666.5 105.7 657.3 106.7C652.1 106.9 647.9 106.7 644.4 105.5C640.7 104.3 636.5 102.8 631.7 100.8C629.5 99.3 628.2 97.6 627.5 95.6C626.8 93.9 626.8 91.9 627 90.1C627.2 88.4 628 86.6 629 85.1C629.7 83.9 630.7 82.9 631.7 82.4C632.9 81.7 636.2 80.7 641.4 79.9C646.6 79.2 652.3 78.4 658.8 77.9C665 77.4 671.2 77.2 677.2 76.9C682.9 76.7 687.1 76.9 689.6 77.4Z" fill="#E5316B"/>
</svg>
