<svg width="1382" height="704" viewBox="0 0 1382 704" fill="none" xmlns="http://www.w3.org/2000/svg">
<path d="M26.3 35.7C26.6 34.7 27.2001 34 28.2001 34H48.5C49.5 34 50.2001 34.7 50.4001 35.7L75.5 149.2C75.7 150.2 75.2 150.9 74.1 150.9H55C53.8 150.9 53.3 150.2 53.1 149.2L49.3 128H27.1L23.1 149.2C22.9 150.2 22.4001 150.9 21.2001 150.9H2.10002C1.10002 150.9 0.600059 150.2 0.700059 149.2L26.2001 35.7H26.3ZM46.1 110.2L38.7001 69.6H38.2001L30.5 110.2H46.2001H46.1Z" fill="#F8F8F8"/>
<path d="M119.4 35.7C119.4 34.7 120.1 34 121.1 34H140.2C141.2 34 141.9 34.7 141.9 35.7V129.6C141.9 130.3 142.2 130.6 142.9 130.6H172.5C173.5 130.6 174.2 131.3 174.2 132.3V149.2C174.2 150.2 173.5 150.9 172.5 150.9H121.1C120.1 150.9 119.4 150.2 119.4 149.2V35.7Z" fill="#F8F8F8"/>
<path d="M221.4 54.3C220.4 54.3 219.7 53.6 219.7 52.6V35.7C219.7 34.7 220.4 34 221.4 34H239.5C240.5 34 241.2 34.7 241.2 35.7V52.6C241.2 53.6 240.5 54.3 239.5 54.3H221.4ZM221.4 151C220.4 151 219.7 150.3 219.7 149.3V69.5C219.7 68.5 220.4 67.8 221.4 67.8H239.5C240.5 67.8 241.2 68.5 241.2 69.5V149.3C241.2 150.3 240.5 151 239.5 151H221.4Z" fill="#F8F8F8"/>
<path d="M310.2 35.7C310.5 34.7 311.1 34 312.1 34H332.4C333.4 34 334.1 34.7 334.3 35.7L359.4 149.2C359.6 150.2 359.1 150.9 358 150.9H338.9C337.7 150.9 337.2 150.2 337 149.2L333.2 128H311L307 149.2C306.8 150.2 306.3 150.9 305.1 150.9H286C285 150.9 284.5 150.2 284.6 149.2L310.1 35.7H310.2ZM330 110.2L322.6 69.6H322.1L314.4 110.2H330.1H330Z" fill="#F8F8F8"/>
<path d="M398.8 92.5C398.8 62.4 399.3 57.6 401 52.1C405.3 39.4 415.5 32.5 431.1 32.5C446.7 32.5 461 42.7 462.6 61.6C462.8 62.6 462.3 63.5 461.2 63.7L443 66.8C442 67 441.3 66.5 441.1 65.3C440.6 56.9 437.1 52.9 431.3 52.9C425.5 52.9 423.7 55.1 422.7 58.4C421.8 61.2 421.7 62.5 421.7 92.6C421.7 122.7 421.9 124.1 422.7 126.7C423.7 130.1 427.3 132.4 431.6 132.4C435.9 132.4 439.5 130.2 440.5 126.7C441.2 124.3 441.5 122.6 441.5 105.4C441.5 88.2 441.2 104.4 440.5 104.4H433.1C432.1 104.4 431.4 103.7 431.4 102.7V87.6C431.4 86.6 432.1 85.9 433.1 85.9H461.5C462.5 85.9 463.2 86.6 463.2 87.6V92.8C463.2 122.9 462.7 127.7 460.8 133.1C456.5 146 446.3 152.9 431 152.9C415.7 152.9 405.2 146 400.9 133.3C399.2 127.8 398.7 123 398.7 92.9L398.8 92.5ZM407.4 2.20001C407.4 1.20001 408.1 0.5 409.3 0.5H418.4C419.6 0.5 420.1 1.20001 420.5 2.20001C422.2 6.80001 425.3 10.1 430.3 10.1C435.3 10.1 438.4 6.80001 440.1 2.20001C440.4 1.20001 440.8 0.5 442 0.5H451.1C452.3 0.5 453 1.20001 453 2.20001C452.5 14.4 444.7 24.4 430.3 24.4C415.9 24.4 408.1 14.4 407.4 2.20001Z" fill="#F8F8F8"/>
<path d="M527.8 35.7C528.1 34.7 528.7 34 529.7 34H550C551 34 551.7 34.7 551.9 35.7L577 149.2C577.2 150.2 576.7 150.9 575.6 150.9H556.5C555.3 150.9 554.8 150.2 554.6 149.2L550.8 128H528.6L524.6 149.2C524.4 150.2 523.9 150.9 522.7 150.9H503.6C502.6 150.9 502.1 150.2 502.2 149.2L527.7 35.7H527.8ZM547.6 110.2L540.2 69.6H539.7L532 110.2H547.7H547.6Z" fill="#F8F8F8"/>
<path d="M1.1001 483.7V195.7C1.1001 192.8 2.60012 191.3 5.50012 191.3H91.9001C120.4 191.3 141.3 197.6 154.7 210.3C168.1 223 174.8 242.2 174.8 268.1C174.8 294 163.3 323.2 140.3 333.1V334C165.6 341.6 178.3 364 178.3 401.2C178.3 438.4 171 454.6 156.3 468C141.6 481.4 119.3 488.1 89.3001 488.1H5.50012C2.60012 488.1 1.1001 486.6 1.1001 483.7ZM73.1001 310.5H82.7001C91.7001 310.5 97.9001 308.3 101.2 303.7C104.5 299.2 106.2 290.7 106.2 278.2C106.2 265.7 104.5 257.6 101.2 253.1C97.9001 248.6 91.7001 246.3 82.7001 246.3H73.1001C71.4001 246.3 70.5001 247.2 70.5001 248.9V307.8C70.5001 309.5 71.4001 310.4 73.1001 310.4V310.5ZM70.4001 430.5C70.4001 432.2 71.3001 433.1 73.0001 433.1H82.2001C92.1001 433.1 99.0001 430.6 102.9 425.5C106.8 420.4 108.8 411 108.8 397.4C108.8 383.8 106.8 374.4 102.9 369.5C99.0001 364.6 92.1001 362.1 82.2001 362.1H73.0001C71.3001 362.1 70.4001 363 70.4001 364.7V430.6V430.5Z" fill="#E5316B"/>
<path d="M264.6 248.1H207.4C204.5 248.1 203 246.6 203 243.7V195.7C203 192.8 204.5 191.3 207.4 191.3H264.6C267.5 191.3 269 192.8 269 195.7V243.7C269 246.6 267.5 248.1 264.6 248.1ZM264.6 488.1H207.4C204.5 488.1 203 486.6 203 483.7V280C203 277.1 204.5 275.6 207.4 275.6H264.6C267.5 275.6 269 277.1 269 280V483.7C269 486.6 267.5 488.1 264.6 488.1Z" fill="#E5316B"/>
<path d="M482.7 488.1H418.1C415.2 488.1 413.3 486.8 412.4 484.2L382.3 377.3H372.3C370.6 377.3 369.7 378.2 369.7 379.9V483.7C369.7 486.6 368.2 488.1 365.3 488.1H304.7C301.8 488.1 300.3 486.6 300.3 483.7V195.7C300.3 192.8 301.8 191.3 304.7 191.3H388C415.9 191.3 437.7 198.9 453.4 214.2C469.1 229.5 477 253.1 477 285.1C477 317.1 466.7 344.1 446 360.1L484.8 483.6C486 486.5 485.2 488 482.6 488L482.7 488.1ZM382.4 320.1C391.4 320.1 397.9 317.6 401.8 312.5C405.7 307.4 407.7 298.3 407.7 285.2C407.7 272.1 405.7 262.9 401.8 257.7C397.9 252.5 391.4 249.8 382.4 249.8H372.4C370.7 249.8 369.8 250.7 369.8 252.4V317.4C369.8 319.1 370.7 320 372.4 320H382.4V320.1Z" fill="#E5316B"/>
<path d="M506.7 483.7V195.7C506.7 192.8 508.2 191.3 511.1 191.3H571.7C574.6 191.3 576.1 192.8 576.1 195.7V423.4C576.1 425.1 577 426 578.7 426H651.1C654 426 655.5 427.5 655.5 430.4V483.6C655.5 486.5 654 488 651.1 488H511C508.1 488 506.6 486.5 506.6 483.6L506.7 483.7Z" fill="#E5316B"/>
<path d="M1098.8 488.1H1038.2C1035.3 488.1 1033.8 486.6 1033.8 483.7V256C1033.8 254.3 1032.9 253.4 1031.2 253.4H982.3C979.4 253.4 977.9 251.9 977.9 249V195.8C977.9 192.9 979.4 191.4 982.3 191.4H1154.6C1157.5 191.4 1159 192.9 1159 195.8V249C1159 251.9 1157.5 253.4 1154.6 253.4H1105.7C1104 253.4 1103.1 254.3 1103.1 256V483.7C1103.1 486.6 1101.6 488.1 1098.7 488.1H1098.8Z" fill="#E5316B"/>
<path d="M838.6 437.6C835.3 434.9 831.5 432.7 827.2 431.2C822.9 429.7 818.4 428.9 813.7 428.9C792.9 428.9 771.5 434 749.8 444.2C728 454.4 705.6 467.8 682.7 484.3C675.8 489.3 668.2 495.5 659.8 503C651.4 510.5 642.8 518.8 634 527.9C625.2 537 616.6 546.7 608.1 556.9C599.6 567.1 591.9 577.3 585.2 587.6C578.4 597.9 572.8 607.9 568.1 617.6C563.5 627.3 560.7 636.2 559.7 644.2C559.9 649.2 561.2 654.5 563.4 660.2C565.6 665.9 568.4 671.3 571.6 676.4C574.8 681.5 578.3 686 582.1 690.1C585.9 694.1 589.4 697.1 592.8 699C598.2 702.1 605.5 703.6 614.5 703.6C623.5 703.6 636.9 701.6 649.8 697.6C662.7 693.6 676.2 687.9 690.3 680.7C704.4 673.5 718.9 664.9 733.8 655.1C748.7 645.3 763.8 634.7 778.9 623.3C783.9 619.3 790 614.6 797.2 609.3C804.4 604 811.6 598.5 818.9 593C826.1 587.4 832.9 582 839.1 576.8C845.4 571.6 850.2 567.1 853.5 563.3L868.8 561.9C887 560.7 899.7 559.2 906.8 557.5C913.9 555.7 917.5 553.1 917.5 549.5C917.5 545.9 915.3 542.9 910.9 541C906.5 539.1 900.7 538.2 893.3 538.2C885.9 538.2 879.3 538.6 869.9 539.3C863.7 539.5 859 539.7 855.7 539.8C852.4 539.9 849.9 540 848.2 540C846.5 540 846.5 540 846 539.9L844.2 539.7H832C830.8 539.7 829.6 539.7 828.4 540C827.2 540.3 827.5 540.2 826.9 540.2C825.7 540.3 823.6 540.4 820.7 540.6C817.7 540.7 813.5 540.8 808.1 540.8H786.8C771.6 540.8 760 540.8 751.8 540.6C750.6 540.6 749.5 540.6 748.5 540.6C742 540.6 737.1 540.9 733.7 541.5C729.8 542.2 727.5 543.6 726.8 545.8C726.1 547.9 725.7 551.4 725.7 556.1C725.7 560.8 726.2 560 727.1 562.1C728 564.2 729.5 566.2 731.4 568.1L734.6 571.3C735.1 572 735.8 572.7 736.9 573.3C738 573.9 739 574.2 739.9 574.2L750.2 573.9C751.9 573.9 753.6 573.9 755.2 573.3C756.8 572.7 757.1 572.9 757.8 572.8C759.1 572.6 760.4 572.5 761.5 572.5C762.6 572.5 767.1 572.1 767.1 572.1C768.3 572.1 769.3 572 770.3 571.7L783.1 570.3H782.4L803.4 568.9C800.1 572 796.1 575.5 791.5 579.4C786.9 583.3 782 587.3 776.9 591.3C771.8 595.3 766.7 599.2 761.6 603C756.5 606.8 751.8 610.1 747.6 612.9C738.4 619.1 728.5 625.7 718.1 632.8C707.7 639.9 697 646.5 685.9 652.5C674.9 658.5 663.9 663.5 653 667.4C642.1 671.3 631.6 673.3 621.4 673.3C611.2 673.3 608.4 672.3 605.9 670.3C603.4 668.3 602.2 665.4 602.2 661.6C602.2 655 604.3 646.9 608.4 637.4C612.5 627.9 618.3 617.7 625.6 606.7C632.9 595.7 641.6 584.3 651.5 572.6C661.4 560.9 672.1 549.5 683.5 538.3C695.1 527.6 706.7 517.4 718.3 507.6C729.9 497.8 741.3 489 752.6 481.3C763.8 473.6 774.9 467.5 785.8 463C796.7 458.5 807.3 456.3 817.8 456.3C828.3 456.3 828.1 459 828.1 464.5C828.1 470 826.9 471.4 824.4 474.6C821.9 477.8 819.1 480.8 816.1 483.5C813 486.2 810.2 488.6 807.8 490.6C805.3 492.6 804.1 494 804.1 494.7C804.1 497.1 805.4 499.2 808 501.1C810.6 503 813.9 503.9 817.9 503.9C821.9 503.9 829 501.2 835 495.7C840.9 490.3 845.5 480.1 848.9 465.1C849.4 462.7 849.6 460.8 849.6 459.4C849.6 455.1 848.6 451.2 846.6 447.5C844.6 443.8 841.9 440.6 838.6 437.9V437.6ZM811.8 559.3L812 558.9C812 559.1 812 559.3 811.8 559.3L811.6 559.7C811.6 559.5 811.6 559.3 811.8 559.3Z" fill="#F8F8F8"/>
<path d="M1016.8 596.4C1019.8 593 1022.6 589.3 1025.3 585.4C1028 581.5 1030.4 577.8 1032.4 574.2C1034.4 570.6 1035.4 567.8 1035.4 565.7C1035.4 563.6 1034.3 562.9 1032.2 562.9C1030.1 562.9 1027.2 563.7 1023.7 565.4C1023.2 565.4 1022.9 565.4 1022.8 565.2C1022.7 565.1 1022.4 565 1021.9 565C1020 565 1018 566.3 1015.9 568.9L990.7 590.2L985 594.5C982.4 596.4 979.7 598.6 977 601.2C974.3 603.8 971.7 606.5 969.4 609.4V609C970.8 605.7 972.8 601.5 975.4 596.6C978 591.6 980.7 586.7 983.4 581.9C986.1 577 988.5 572.6 990.5 568.6C992.5 564.6 993.5 562 993.5 560.8C993.5 559.6 993.4 558.7 993.1 558V555.9C992.6 553.8 991.7 551.6 990.4 549.3C989.1 547.1 987.7 545 986.1 543.1C984.6 541.2 982.9 539.7 981.1 538.5C979.3 537.3 977.7 536.7 976.3 536.7C974.9 536.7 972.2 539.1 967.4 544C962.7 548.9 956.5 555.3 948.9 563.2C941.3 571.1 932.5 580.1 922.4 590C912.3 599.9 901.4 610 889.5 620.2L909.8 586.4L911.9 582.8C915 578.5 917.9 574.1 920.6 569.5C923.3 564.9 924.7 560 924.7 554.8C924.7 549.6 924.2 549.9 923.3 547.3C922.3 544.7 921.1 542.3 919.6 540C918.1 537.8 916.4 535.9 914.6 534.5C912.8 533.1 911.1 532.4 909.4 532.4C906.6 532.4 904.1 535 901.9 540.2V539.5C900.7 542.1 898.7 545.7 895.9 550.3C893.1 554.9 889.8 560.1 886.1 565.8C882.4 571.5 878.6 577.4 874.6 583.6C870.6 589.8 866.8 595.9 863.4 601.9C860 607.9 857.2 613.6 855.1 618.8C853 624 851.9 628.4 851.9 631.9C851.9 635.4 852.9 639.2 854.9 642.6C856.9 645.9 859.5 648.8 862.5 651.1C865.6 653.5 868.9 655.4 872.6 656.8C876.3 658.2 879.8 658.9 883.1 658.9C886.4 658.9 886.7 658.3 888.8 657.1C890.9 655.9 893.8 653.7 897.3 650.5C900.9 647.3 905.3 642.9 910.8 637.2C916.2 631.5 923.4 624.2 932.1 615.2C932.1 615.7 932.1 616.2 931.9 616.8C931.8 617.4 931.7 617.9 931.7 618.4C931.7 623.6 933.1 628.1 936 631.9C939.8 637.6 943.5 641.6 946.3 644C949.1 646.4 952.2 647.6 955.5 647.6C958.8 647.6 965.1 644.5 974.5 638.2C983.9 631.9 995.4 621 1009.1 604.6C1011 602.7 1013.4 600 1016.4 596.6L1016.8 596.4Z" fill="#F8F8F8"/>
<path d="M928 503.9C928 505.9 928.4 508.1 929.2 510.5C930 512.8 931.1 515 932.4 517.1C933.7 519.1 935.4 520.8 937.3 522.1C939.2 523.4 941.3 524.1 943.6 524.1C945.9 524.1 945.7 523.1 948 521C950.3 519 952.7 516.7 955.2 514.1C957.6 511.6 959.9 509.1 961.9 506.8C962.1 506.6 962.2 506.5 962.3 506.3C962.9 505.6 963.3 504.6 963.5 503.9C964 502 964.3 501.5 964.4 499.8C964.4 499.5 964.4 496.7 964.1 496.6C963.3 494.6 961.8 493.7 959.8 491.7C956.4 488.2 952.5 486.5 948 486.5C943.5 486.5 937.9 488.4 933.6 492.3C931.6 494.3 930.1 496.2 929.2 498C928.3 499.7 927.8 501.7 927.8 504L928 503.9Z" fill="#F8F8F8"/>
<path d="M968.8 503.9C968.8 505.9 969.2 508.1 970 510.5C970.8 512.8 971.9 515 973.2 517.1C974.5 519.1 976.2 520.8 978.1 522.1C980 523.4 982.1 524.1 984.4 524.1C986.7 524.1 986.5 523.1 988.8 521C991.1 519 993.5 516.7 996 514.1C998.4 511.6 1000.7 509.1 1002.7 506.8C1002.9 506.6 1003 506.5 1003.1 506.3C1003.7 505.6 1004.1 504.6 1004.3 503.9C1004.8 502 1005.1 501.5 1005.2 499.8C1005.2 499.5 1005.2 496.7 1004.9 496.6C1004.1 494.6 1002.6 493.7 1000.6 491.7C997.2 488.2 993.3 486.5 988.8 486.5C984.3 486.5 978.7 488.4 974.4 492.3C972.4 494.3 970.9 496.2 970 498C969.1 499.7 968.6 501.7 968.6 504L968.8 503.9Z" fill="#F8F8F8"/>
<path d="M1111.5 637.8C1105.6 638.5 1099.5 639.6 1093.2 641.2C1086.9 642.7 1080.7 644.5 1074.5 646.5C1068.3 648.5 1062.5 650.6 1056.9 652.7C1052.5 654.4 1048.8 656.5 1045.2 658.2C1041.6 659.9 1041.8 660.1 1040.1 661.1C1037.9 662.5 1035.3 663.3 1032.7 664.3C1029.3 665.6 1026.6 666.3 1024.7 666.3C1021.4 666.3 1018.1 664.6 1014.8 661.3C1013.6 660.1 1012.1 657.6 1010.9 656C1009.7 654.3 1008.5 652.6 1007.3 650.7C1005.6 648.1 1003.4 640.6 1003.4 637.6C1003.4 634.6 1004.2 631.4 1005.9 628.2C1007.6 625 1009.5 622 1011.8 619.1C1014 616.3 1016.4 613.8 1018.9 611.6C1021.4 609.5 1023.3 607.8 1024.8 606.6C1029.3 603.3 1034.3 599.6 1039.9 595.4C1045.5 591.3 1051.4 587.2 1057.7 583.1C1064 579.1 1070.4 575.2 1077.1 571.6C1083.7 567.9 1090.5 565 1097.3 562.9C1095.6 563.1 1093 563.5 1089.5 564C1085.9 564.5 1081.8 564.9 1077.1 565.4C1072.4 565.9 1067.4 566.3 1062.2 566.6C1057 567 1052 567.1 1047.3 567.1C1040.2 567.1 1034.8 566.5 1031.1 565.1C1027.4 563.8 1024.8 562.2 1023.1 560.3C1021.4 558.4 1020.6 556.5 1020.4 554.4C1020.3 552.4 1020.2 550.7 1020.2 549.3C1020.2 542.4 1023.8 539 1030.9 539C1038 539 1040.4 540.5 1045.8 543.6L1045.1 543.2C1046 543.7 1047.5 544 1049.5 544.1C1051.5 544.2 1053.8 544.3 1056.2 544.5C1058.7 544.6 1061.1 544.7 1063.5 544.7H1069.5C1074 544.7 1078.9 544.4 1084.2 543.8C1089.5 543.2 1094.8 542.4 1100 541.5C1105.2 540.6 1110.1 539.6 1114.6 538.7C1119.1 537.8 1122.8 536.7 1125.6 535.5L1131.3 533.4C1133 532.7 1134.5 532.3 1135.9 532.3C1139.2 532.3 1142.2 535 1144.8 540.5V540.1C1147.9 544.8 1149.4 549.9 1149.4 555.4C1149.4 560.9 1149.3 559.7 1149 561.1C1148.8 562.5 1147.9 563.9 1146.5 565.4C1145.1 566.8 1142.7 568.3 1139.4 569.8C1136.1 571.3 1131.5 573.4 1125.5 576C1118.9 578.8 1112.9 581.7 1107.6 584.7C1102.3 587.7 1097.1 590.8 1092.1 594.1C1087.1 597.4 1082.1 600.8 1077 604.2C1071.9 607.6 1066.5 611.2 1060.8 615C1065.8 614.3 1070.3 613.8 1074.3 613.6C1078.3 613.4 1082.1 613.2 1085.7 613.2H1097.4C1101.4 613.2 1105.1 613.6 1108.4 614.4C1111.7 615.2 1114.4 616.8 1116.6 619C1118.7 621.3 1119.8 624.5 1119.8 628.8C1119.8 633.1 1119.1 633.2 1117.7 635C1116.3 636.8 1114.1 637.7 1111.3 637.7L1111.5 637.8Z" fill="#F8F8F8"/>
<path d="M1253.6 589.8C1258.1 586.5 1261.3 584.2 1263.2 583.1C1265.1 581.9 1266.5 581.3 1267.5 581.3C1268.5 581.3 1269.4 581.8 1269.6 582.7C1269.8 583.6 1270 584.5 1270 585.2C1270 589.2 1267.5 593.5 1262.5 598C1257.5 602.5 1251.1 608.4 1243.3 615.8C1237.8 620.8 1231.7 626 1224.8 631.6C1217.9 637.2 1211.1 642.2 1204.2 646.7C1197.3 651.2 1190.8 654.9 1184.7 657.9C1178.5 660.9 1173.4 662.3 1169.4 662.3C1165.4 662.3 1161.1 661.4 1156.4 659.6C1151.8 657.8 1147.5 655.4 1143.4 652.3C1139.4 649.2 1136 645.7 1133.3 641.6C1130.6 637.6 1129.2 633.2 1129.2 628.5C1129.2 623.8 1130.7 616.2 1133.6 609.3C1136.6 602.4 1140.4 595.6 1145.1 588.7C1149.8 581.8 1155.2 575.3 1161.3 569C1167.3 562.7 1173.6 557.2 1180 552.3C1186.4 547.4 1192.7 543.5 1198.8 540.6C1205 537.6 1210.4 536.2 1215.1 536.2C1219.8 536.2 1224.2 537.2 1228.1 539.2C1232 541.2 1235.4 543.6 1238.2 546.3C1241 549 1243.3 551.8 1244.9 554.7C1246.6 557.5 1247.4 559.9 1247.4 561.8C1247.4 568.7 1244.6 575.7 1238.9 582.8C1233.2 589.9 1226.7 596.3 1219.4 602C1212.1 607.7 1204.9 612.4 1197.9 616C1190.9 619.7 1186.1 621.5 1183.5 621.5C1180.9 621.5 1179.6 620.6 1176.8 618.8C1174 617 1172.3 615.4 1171.8 613.9L1165.1 626.4L1165.8 625.7C1165.1 627.6 1164.6 629.3 1164.2 630.9C1163.8 632.4 1163.7 633.6 1163.7 634.3C1165.1 634.8 1166.5 635.1 1167.8 635.4C1169.1 635.6 1170.7 635.8 1172.6 635.8C1175.4 635.8 1178.9 635.2 1182.9 634C1186.9 632.8 1192 630.5 1198.2 627.1C1204.4 623.7 1211.9 619 1220.9 613.1C1229.9 607.2 1240.8 599.5 1253.6 590V589.8ZM1219.1 564.6H1218.7C1218 564.6 1216.5 565.5 1214.3 567.3C1212 569.1 1209.3 571.4 1206.1 574.4C1202.9 577.4 1199.4 580.7 1195.6 584.5C1191.8 588.3 1187.8 592.3 1183.5 596.6C1188 596.4 1192.4 595.1 1196.8 592.7C1201.2 590.3 1205.1 587.7 1208.5 584.7C1211.9 581.7 1214.7 578.7 1216.8 575.5C1218.9 572.3 1220 569.6 1220 567.5C1220 565.4 1219.6 565.4 1218.9 564.7L1219.1 564.6Z" fill="#F8F8F8"/>
<path d="M1380.8 437.3C1380.1 434.6 1378.9 432.1 1377.2 429.8C1375.5 427.6 1373.5 425.7 1371.2 424.3C1368.8 422.9 1366.7 422.2 1364.8 422.2C1359.6 422.2 1352.8 426.5 1344.6 435.2C1336.3 443.8 1327.5 454.9 1318.3 468.4C1309.1 481.9 1299.8 496.8 1290.6 513.2C1281.4 529.5 1273 545.5 1265.6 561C1258.1 576.5 1252.1 590.5 1247.5 603.1C1242.9 615.7 1240.6 624.9 1240.6 630.8C1240.6 636.7 1241.1 637.5 1242.2 640.9C1243.3 644.3 1244.8 647.5 1246.8 650.3C1248.8 653.1 1251.2 655.5 1253.9 657.4C1256.6 659.3 1259.8 660.2 1263.3 660.2C1266.8 660.2 1265.5 659.8 1266.3 659.1C1267.1 658.4 1268.4 657.4 1270 656.3C1271.9 655.4 1275 653 1279.2 649.4C1283.5 645.7 1288.3 641.5 1293.8 636.8C1299.2 632.1 1304.9 627 1310.9 621.5C1316.8 616.1 1322.2 611 1327.1 606.4C1332 601.8 1335.9 597.9 1339 594.9C1342.1 591.8 1343.6 590 1343.6 589.6C1343.6 588.4 1342.5 586.9 1340.4 585C1338.3 583.1 1336 582.2 1333.7 582.2C1331.4 582.2 1328.5 582.9 1326.1 584.3C1323.6 585.7 1321.1 587.6 1318.5 590C1309.7 597.8 1302.5 604.2 1296.8 609.2C1291.1 614.2 1286.6 618.1 1283.1 620.9C1279.7 623.7 1277.2 625.7 1275.6 626.8C1274.1 627.9 1273.1 628.4 1272.6 628.4C1272.1 628.4 1272.2 628.3 1272.2 628C1272.2 622.3 1274.4 614.8 1278.8 605.4C1283.2 596 1288.7 585.7 1295.5 574.5C1302.2 563.3 1309.8 551.5 1318.1 539.3C1326.4 527.1 1334.6 515.1 1342.6 503.4C1350.6 491.7 1358.1 480.8 1364.8 470.7C1371.5 460.6 1376.7 452 1380.3 444.9C1381.5 442.5 1381.7 440 1381 437.3H1380.8Z" fill="#F8F8F8"/>
<path d="M832.1 417.9C837.3 419.8 842 422.4 846.2 425.6V406.1L861 373.8L898.1 484.6C898.7 486.9 900.1 488.1 902.5 488.1H918.3C919.6 486.4 921.1 484.7 922.9 482.9C923.1 482.7 923.2 482.6 923.4 482.4C930.9 475.6 940 472 949.6 472C959.2 472 961.6 473.7 966.8 476.9L905.6 310.1L964.1 195.8C964.7 194.6 964.8 193.6 964.3 192.7C963.9 191.8 963.1 191.4 961.9 191.4H900.4C897.5 191.4 895.5 192.7 894.3 195.3L846.3 300.9V195.8C846.3 192.9 844.8 191.4 841.9 191.4H781.3C778.4 191.4 776.9 192.9 776.9 195.8V419.6C789.4 416.5 801.7 414.8 813.9 414.8C826.1 414.8 826.4 415.9 832.2 418L832.1 417.9Z" fill="#E5316B"/>
<path d="M1306.6 460.3C1314.1 449.4 1321.3 439.9 1328.3 431.9V430.4C1328.3 427.5 1326.8 426 1323.9 426H1252.8C1251.1 426 1250.2 425.1 1250.2 423.4V371.9C1250.2 370.2 1251.1 369.3 1252.8 369.3H1313.9C1316.8 369.3 1318.3 367.8 1318.3 364.9V311.7C1318.3 308.8 1316.8 307.3 1313.9 307.3H1252.8C1251.1 307.3 1250.2 306.4 1250.2 304.7V255.8C1250.2 254.1 1251.1 253.2 1252.8 253.2H1323.9C1326.8 253.2 1328.3 251.7 1328.3 248.8V195.6C1328.3 192.7 1326.8 191.2 1323.9 191.2H1185.2C1182.3 191.2 1180.8 192.7 1180.8 195.6V483.6C1180.8 486.5 1182.3 488 1185.2 488H1288.8C1294.7 478.2 1300.7 468.9 1306.6 460.3Z" fill="#E5316B"/>
<path d="M683.9 191.4H741.1C743.5 191.4 745.5 193.4 745.5 195.8V243.8C745.5 246.2 743.5 248.2 741.1 248.2H683.9C681.5 248.2 679.5 246.2 679.5 243.8V195.8C679.5 193.4 681.5 191.4 683.9 191.4Z" fill="#E5316B"/>
<path d="M743.8 431.4C744.3 431.2 744.8 430.9 745.3 430.7V280C745.3 277.1 743.8 275.6 740.9 275.6H683.7C680.8 275.6 679.3 277.1 679.3 280V469.3C701.2 453.9 722.8 441.2 743.6 431.4H743.8Z" fill="#E5316B"/>
</svg>
