<svg width="556" height="284" viewBox="0 0 556 284" fill="none" xmlns="http://www.w3.org/2000/svg">
<path d="M10.3 14.8999C10.4 14.4999 10.6 14.2 11.1 14.2H19.3C19.7 14.2 20 14.4999 20.1 14.8999L30.2 60.5999C30.2 60.9999 30.1 61.2999 29.6 61.2999H21.9C21.4 61.2999 21.2 60.9999 21.1 60.5999L19.6 52.0999H10.7L9.10001 60.5999C9.10001 60.9999 8.8 61.2999 8.3 61.2999H0.600006C0.200006 61.2999 0 60.9999 0 60.5999L10.3 14.8999ZM18.3 44.8999L15.3 28.4999H15.1L12 44.8999H18.3Z" fill="#1D1D1B"/>
<path d="M47.8 14.8999C47.8 14.4999 48.1 14.2 48.5 14.2H56.2C56.6 14.2 56.9 14.4999 56.9 14.8999V52.7C56.9 53 57 53.0999 57.3 53.0999H69.2C69.6 53.0999 69.9 53.3999 69.9 53.7999V60.5999C69.9 60.9999 69.6 61.2999 69.2 61.2999H48.5C48.1 61.2999 47.8 60.9999 47.8 60.5999V14.8999Z" fill="#1D1D1B"/>
<path d="M88.8 22.3999C88.4 22.3999 88.1 22.1 88.1 21.7V14.8999C88.1 14.4999 88.4 14.2 88.8 14.2H96.1C96.5 14.2 96.8 14.4999 96.8 14.8999V21.7C96.8 22.1 96.5 22.3999 96.1 22.3999H88.8ZM88.8 61.2999C88.4 61.2999 88.1 60.9999 88.1 60.5999V28.4999C88.1 28.0999 88.4 27.7999 88.8 27.7999H96.1C96.5 27.7999 96.8 28.0999 96.8 28.4999V60.5999C96.8 60.9999 96.5 61.2999 96.1 61.2999H88.8Z" fill="#1D1D1B"/>
<path d="M124.6 14.8999C124.7 14.4999 124.9 14.2 125.4 14.2H133.6C134 14.2 134.3 14.4999 134.4 14.8999L144.5 60.5999C144.5 60.9999 144.4 61.2999 143.9 61.2999H136.2C135.7 61.2999 135.5 60.9999 135.4 60.5999L133.9 52.0999H125L123.4 60.5999C123.4 60.9999 123.1 61.2999 122.6 61.2999H114.9C114.5 61.2999 114.3 60.9999 114.3 60.5999L124.6 14.8999ZM132.6 44.8999L129.6 28.4999H129.4L126.3 44.8999H132.6Z" fill="#1D1D1B"/>
<path d="M160.3 37.7999C160.3 25.6999 160.5 23.6999 161.2 21.4999C162.9 16.3999 167 13.5999 173.3 13.5999C179.6 13.5999 185.4 17.6999 186 25.2999C186 25.6999 185.9 26.0999 185.4 26.0999L178.1 27.2999C177.7 27.2999 177.4 27.2 177.3 26.7C177.1 23.3 175.7 21.7 173.4 21.7C171.1 21.7 170.4 22.5999 169.9 23.8999C169.6 24.9999 169.5 25.6 169.5 37.7C169.5 49.8 169.5 50.3999 169.9 51.3999C170.3 52.7999 171.8 53.7 173.5 53.7C175.2 53.7 176.7 52.7999 177.1 51.3999C177.4 50.3999 177.5 49.6999 177.5 42.7999C177.5 35.8999 177.4 42.3999 177.1 42.3999H174.1C173.7 42.3999 173.4 42.1 173.4 41.7V35.5999C173.4 35.1999 173.7 34.8999 174.1 34.8999H185.5C185.9 34.8999 186.2 35.1999 186.2 35.5999V37.7C186.2 49.8 186 51.7999 185.2 53.8999C183.5 59.0999 179.4 61.9 173.2 61.9C167 61.9 162.8 59.0999 161.1 53.9999C160.4 51.7999 160.2 49.8 160.2 37.7L160.3 37.7999ZM163.7 1.39993C163.7 0.999933 164 0.699951 164.5 0.699951H168.2C168.7 0.699951 168.9 0.999933 169 1.39993C169.7 3.29993 170.9 4.59995 172.9 4.59995C174.9 4.59995 176.2 3.29993 176.8 1.39993C176.9 0.999933 177.1 0.699951 177.6 0.699951H181.3C181.8 0.699951 182.1 0.999933 182.1 1.39993C181.9 6.29993 178.8 10.2999 173 10.2999C167.2 10.2999 164.1 6.29993 163.8 1.39993H163.7Z" fill="#1D1D1B"/>
<path d="M212.2 14.8999C212.3 14.4999 212.5 14.2 213 14.2H221.2C221.6 14.2 221.9 14.4999 222 14.8999L232.1 60.5999C232.1 60.9999 232 61.2999 231.5 61.2999H223.8C223.3 61.2999 223.1 60.9999 223 60.5999L221.5 52.0999H212.6L211 60.5999C211 60.9999 210.7 61.2999 210.2 61.2999H202.5C202.1 61.2999 201.9 60.9999 201.9 60.5999L212.2 14.8999ZM220.2 44.8999L217.2 28.4999H217L213.9 44.8999H220.2Z" fill="#1D1D1B"/>
<path d="M0.0999756 195.3V79.3C0.0999756 78.1 0.699963 77.5 1.89996 77.5H36.7C48.2 77.5 56.6 80 62 85.1C67.4 90.2 70.1 98 70.1 108.4C70.1 118.8 65.5 130.6 56.2 134.6V135C66.4 138 71.5 147.1 71.5 162.1C71.5 177.1 68.5 183.6 62.6 189C56.7 194.4 47.7 197.1 35.6 197.1H1.89996C0.699963 197.1 0.0999756 196.5 0.0999756 195.3ZM29.1 125.6H33C36.6 125.6 39.1 124.7 40.5 122.9C41.8 121.1 42.5 117.7 42.5 112.6C42.5 107.5 41.8 104.3 40.5 102.5C39.2 100.7 36.7 99.8 33 99.8H29.1C28.4 99.8 28 100.2 28 100.9V124.6C28 125.3 28.4 125.7 29.1 125.7V125.6ZM28 173.9C28 174.6 28.4 175 29.1 175H32.8C36.8 175 39.6 174 41.1 171.9C42.7 169.9 43.5 166.1 43.5 160.6C43.5 155.1 42.7 151.3 41.1 149.4C39.5 147.4 36.7 146.4 32.8 146.4H29.1C28.4 146.4 28 146.8 28 147.5V174V173.9Z" fill="#1D1D1B"/>
<path d="M106.2 100.4H83.2C82 100.4 81.4 99.8 81.4 98.6V79.3C81.4 78.1 82 77.5 83.2 77.5H106.2C107.4 77.5 108 78.1 108 79.3V98.6C108 99.8 107.4 100.4 106.2 100.4ZM106.2 197.1H83.2C82 197.1 81.4 196.5 81.4 195.3V113.3C81.4 112.1 82 111.5 83.2 111.5H106.2C107.4 111.5 108 112.1 108 113.3V195.3C108 196.5 107.4 197.1 106.2 197.1Z" fill="#1D1D1B"/>
<path d="M194.1 197.1H168.1C166.9 197.1 166.2 196.6 165.8 195.5L153.7 152.5H149.7C149 152.5 148.6 152.9 148.6 153.6V195.4C148.6 196.6 148 197.2 146.8 197.2H122.4C121.2 197.2 120.6 196.6 120.6 195.4V79.4C120.6 78.2 121.2 77.6 122.4 77.6H156C167.2 77.6 176 80.7 182.4 86.8C188.7 92.9 191.9 102.5 191.9 115.4C191.9 128.3 187.7 139.2 179.4 145.6L195 195.3C195.5 196.5 195.2 197.1 194.1 197.1ZM153.7 129.4C157.3 129.4 159.9 128.4 161.5 126.3C163.1 124.3 163.9 120.6 163.9 115.3C163.9 110 163.1 106.3 161.5 104.2C159.9 102.1 157.3 101 153.7 101H149.7C149 101 148.6 101.4 148.6 102.1V128.3C148.6 129 149 129.4 149.7 129.4H153.7Z" fill="#1D1D1B"/>
<path d="M203.7 195.3V79.3C203.7 78.1 204.3 77.5 205.5 77.5H229.9C231.1 77.5 231.7 78.1 231.7 79.3V171C231.7 171.7 232.1 172.1 232.8 172.1H262C263.2 172.1 263.8 172.7 263.8 173.9V195.3C263.8 196.5 263.2 197.1 262 197.1H205.6C204.4 197.1 203.8 196.5 203.8 195.3H203.7Z" fill="#1D1D1B"/>
<path d="M442.1 197.1H417.7C416.5 197.1 415.9 196.5 415.9 195.3V103.6C415.9 102.9 415.5 102.5 414.8 102.5H395.1C393.9 102.5 393.3 101.9 393.3 100.7V79.3C393.3 78.1 393.9 77.5 395.1 77.5H464.5C465.7 77.5 466.3 78.1 466.3 79.3V100.7C466.3 101.9 465.7 102.5 464.5 102.5H444.8C444.1 102.5 443.7 102.9 443.7 103.6V195.3C443.7 196.5 443.1 197.1 441.9 197.1H442.1Z" fill="#1D1D1B"/>
<path d="M337.4 176.8C336.1 175.7 334.5 174.8 332.8 174.2C331.1 173.6 329.3 173.3 327.4 173.3C319 173.3 310.4 175.4 301.6 179.5C292.8 183.6 283.8 189 274.6 195.7C271.8 197.7 268.8 200.2 265.4 203.2C262 206.2 258.6 209.5 255 213.2C251.5 216.9 248 220.8 244.6 224.9C241.2 229 238.1 233.1 235.4 237.3C232.7 241.4 230.4 245.5 228.5 249.4C226.6 253.3 225.5 256.9 225.1 260.1C225.1 262.1 225.7 264.2 226.6 266.5C227.5 268.8 228.6 271 229.9 273C231.2 275.1 232.6 276.9 234.1 278.5C235.6 280.1 237.1 281.3 238.4 282.1C240.6 283.3 243.5 284 247.1 284C250.7 284 256.1 283.2 261.3 281.6C266.5 280 271.9 277.7 277.6 274.8C283.3 271.9 289.1 268.5 295.1 264.5C301.1 260.5 307.2 256.3 313.3 251.7C315.3 250.1 317.8 248.2 320.7 246C323.6 243.9 326.5 241.7 329.4 239.4C332.3 237.2 335 235 337.6 232.9C340.1 230.8 342.1 229 343.4 227.5L349.6 226.9C356.9 226.4 362 225.8 364.9 225.1C367.8 224.4 369.2 223.3 369.2 221.9C369.2 220.5 368.3 219.2 366.6 218.5C364.8 217.7 362.5 217.4 359.5 217.4C356.5 217.4 353.9 217.5 350.1 217.8C347.6 217.8 345.7 218 344.4 218C343.1 218 342.1 218 341.4 218C340.7 218 340.7 218 340.5 218H339.8H334.9C334.4 218 333.9 218 333.5 218.1C333.1 218.2 333.1 218.1 332.9 218.1C332.4 218.1 331.6 218.1 330.4 218.2C329.2 218.2 327.5 218.2 325.3 218.2H316.7C310.6 218.2 305.9 218.2 302.6 218.2C302.1 218.2 301.7 218.2 301.3 218.2C298.7 218.2 296.7 218.3 295.3 218.6C293.7 218.9 292.8 219.5 292.5 220.3C292.2 221.2 292.1 222.5 292.1 224.4C292.1 226.3 292.3 226 292.7 226.8C293.1 227.7 293.7 228.5 294.4 229.2L295.7 230.5C295.9 230.8 296.2 231 296.6 231.3C297 231.5 297.4 231.7 297.8 231.7H302C302.7 231.6 303.4 231.6 304 231.3C304.6 231 304.8 231.2 305.1 231.1C305.6 231.1 306.1 231 306.6 231C307.1 231 308.9 230.8 308.9 230.8C309.4 230.8 309.8 230.8 310.2 230.7L315.4 230.1H315.1L323.5 229.5C322.2 230.7 320.6 232.1 318.7 233.7C316.8 235.3 314.9 236.9 312.8 238.5C310.7 240.1 308.7 241.7 306.6 243.2C304.5 244.7 302.7 246.1 300.9 247.2C297.2 249.7 293.2 252.4 289 255.2C284.8 258.1 280.5 260.7 276.1 263.1C271.7 265.5 267.3 267.5 262.9 269.1C258.5 270.7 254.3 271.5 250.2 271.5C246.1 271.5 245 271.1 244 270.3C243 269.5 242.5 268.3 242.5 266.8C242.5 264.1 243.3 260.9 245 257.1C246.7 253.3 249 249.2 251.9 244.7C254.9 240.3 258.3 235.7 262.3 231C266.3 226.3 270.6 221.7 275.2 217.2C279.9 212.9 284.5 208.8 289.2 204.8C293.9 200.8 298.5 197.3 303 194.2C307.5 191.1 312 188.6 316.4 186.8C320.8 185 325.1 184.1 329.3 184.1C333.5 184.1 333.4 185.2 333.4 187.4C333.4 189.6 332.9 190.2 331.9 191.5C330.9 192.8 329.8 194 328.5 195.1C327.3 196.2 326.1 197.2 325.1 198C324.1 198.8 323.6 199.4 323.6 199.6C323.6 200.6 324.1 201.4 325.2 202.2C326.2 203 327.6 203.3 329.2 203.3C330.8 203.3 333.7 202.2 336.1 200C338.5 197.8 340.3 193.7 341.7 187.7C341.9 186.7 342 186 342 185.4C342 183.7 341.6 182.1 340.8 180.6C340 179.1 338.9 177.8 337.6 176.7L337.4 176.8Z" fill="#1D1D1B"/>
<path d="M409.1 240.7C410.3 239.3 411.4 237.8 412.5 236.3C413.6 234.7 414.6 233.2 415.4 231.8C416.2 230.4 416.6 229.2 416.6 228.4C416.6 227.6 416.2 227.3 415.3 227.3C414.4 227.3 413.3 227.6 411.9 228.3C411.7 228.3 411.6 228.3 411.5 228.3C411.5 228.3 411.3 228.3 411.1 228.3C410.3 228.3 409.5 228.8 408.7 229.9L398.5 238.5L396.2 240.2C395.1 241 394.1 241.9 393 242.9C391.9 244 390.9 245 389.9 246.2C390.5 244.7 391.3 243.1 392.3 241.1C393.3 239.1 394.4 237.1 395.5 235.2C396.6 233.2 397.6 231.5 398.4 229.8C399.2 228.2 399.6 227.1 399.6 226.7C399.6 226.3 399.6 225.8 399.5 225.6V224.7C399.3 223.8 398.9 223 398.4 222.1C397.9 221.2 397.3 220.4 396.7 219.6C396.1 218.8 395.4 218.2 394.7 217.7C394 217.2 393.3 217 392.8 217C392.3 217 391.1 218 389.2 219.9C387.3 221.9 384.8 224.4 381.8 227.6C378.7 230.8 375.2 234.4 371.1 238.4C367 242.4 362.6 246.5 357.9 250.6L366.1 237L367 235.6C368.2 233.9 369.4 232.1 370.5 230.2C371.6 228.3 372.1 226.4 372.1 224.3C372.1 222.2 371.9 222.3 371.5 221.3C371.1 220.3 370.6 219.3 370 218.4C369.4 217.5 368.7 216.8 368 216.2C367.3 215.6 366.6 215.3 365.9 215.3C364.8 215.3 363.8 216.4 362.9 218.4V218.1C362.4 219.2 361.6 220.6 360.5 222.5C359.4 224.4 358 226.4 356.6 228.7C355.1 231 353.6 233.4 351.9 235.9C350.3 238.4 348.8 240.8 347.4 243.3C346 245.7 344.9 248 344 250.1C343.1 252.2 342.7 254 342.7 255.4C342.7 256.8 343.1 258.4 343.9 259.7C344.7 261 345.7 262.2 347 263.1C348.2 264.1 349.6 264.8 351.1 265.4C352.6 266 354 266.3 355.3 266.3C356.6 266.3 356.7 266.1 357.6 265.6C358.5 265.1 359.6 264.2 361 263C362.4 261.7 364.2 259.9 366.4 257.6C368.6 255.3 371.5 252.4 375 248.7C375 248.9 375 249.1 375 249.3C375 249.5 375 249.8 375 249.9C375 252 375.6 253.8 376.7 255.3C378.2 257.6 379.7 259.2 380.8 260.2C381.9 261.2 383.2 261.6 384.5 261.6C385.8 261.6 388.4 260.3 392.2 257.8C396 255.3 400.6 250.9 406.1 244.3C406.9 243.5 407.8 242.5 409 241.1L409.1 240.7Z" fill="#1D1D1B"/>
<path d="M373.4 203.4C373.4 204.2 373.6 205.1 373.9 206C374.2 206.9 374.7 207.8 375.2 208.6C375.7 209.4 376.4 210.1 377.2 210.6C378 211.1 378.8 211.4 379.7 211.4C380.6 211.4 380.5 211 381.5 210.2C382.4 209.4 383.4 208.5 384.4 207.4C385.4 206.4 386.3 205.4 387.1 204.4C387.1 204.4 387.2 204.3 387.3 204.2C387.5 203.9 387.7 203.5 387.8 203.2C388 202.4 388.1 202.2 388.2 201.6C388.3 201 388.2 200.4 388.1 200.3C387.8 199.5 387.2 199.1 386.4 198.3C385 196.9 383.5 196.2 381.7 196.2C379.9 196.2 377.6 197 375.9 198.5C375.1 199.3 374.5 200.1 374.1 200.8C373.7 201.5 373.5 202.3 373.5 203.2L373.4 203.4Z" fill="#1D1D1B"/>
<path d="M389.8 203.4C389.8 204.2 390 205.1 390.3 206C390.6 206.9 391.1 207.8 391.6 208.6C392.1 209.4 392.8 210.1 393.6 210.6C394.4 211.1 395.2 211.4 396.1 211.4C397 211.4 396.9 211 397.9 210.2C398.8 209.4 399.8 208.5 400.8 207.4C401.8 206.4 402.7 205.4 403.5 204.4C403.5 204.4 403.6 204.3 403.7 204.2C403.9 203.9 404.1 203.5 404.2 203.2C404.4 202.4 404.5 202.2 404.6 201.6C404.7 201 404.6 200.4 404.5 200.3C404.2 199.5 403.6 199.1 402.8 198.3C401.4 196.9 399.9 196.2 398.1 196.2C396.3 196.2 394 197 392.3 198.5C391.5 199.3 390.9 200.1 390.5 200.8C390.1 201.5 389.9 202.3 389.9 203.2L389.8 203.4Z" fill="#1D1D1B"/>
<path d="M447.3 257.4C444.9 257.7 442.5 258.1 439.9 258.8C437.4 259.4 434.9 260.1 432.4 260.9C429.9 261.7 427.6 262.5 425.3 263.4C423.5 264.1 422 264.9 420.6 265.6C419.2 266.3 419.2 266.3 418.6 266.8C417.7 267.4 416.7 267.7 415.6 268.1C414.2 268.6 413.1 268.9 412.4 268.9C411.1 268.9 409.7 268.2 408.4 266.9C407.9 266.4 407.3 265.4 406.8 264.8C406.3 264.1 405.8 263.4 405.4 262.7C404.7 261.7 403.8 258.6 403.8 257.4C403.8 256.2 404.1 254.9 404.8 253.6C405.5 252.3 406.3 251.1 407.2 250C408.1 248.9 409.1 247.9 410.1 247C411.1 246.1 411.9 245.5 412.5 245C414.3 243.7 416.3 242.2 418.6 240.5C420.8 238.8 423.2 237.2 425.8 235.6C428.3 234 430.9 232.4 433.6 230.9C436.3 229.4 439 228.3 441.8 227.4C441.1 227.4 440.1 227.6 438.7 227.8C437.3 228 435.6 228.2 433.7 228.4C431.8 228.6 429.8 228.8 427.7 228.9C425.6 229 423.6 229.1 421.7 229.1C418.8 229.1 416.7 228.8 415.2 228.3C413.7 227.8 412.6 227.1 412 226.4C411.3 225.6 411 224.9 410.9 224C410.9 223.2 410.9 222.5 410.9 221.9C410.9 219.1 412.3 217.8 415.2 217.8C418.1 217.8 419 218.4 421.2 219.7H420.9C421.3 219.7 421.9 219.9 422.7 219.9C423.5 219.9 424.4 219.9 425.4 220C426.4 220 427.4 220 428.3 220H430.7C432.5 220 434.5 219.9 436.6 219.6C438.7 219.4 440.9 219.1 443 218.7C445.1 218.3 447.1 217.9 448.9 217.6C450.7 217.2 452.2 216.8 453.3 216.3L455.6 215.4C456.3 215.1 456.9 215 457.5 215C458.8 215 460 216.1 461.1 218.3C462.3 220.1 463 222.1 463 224.3C463 226.5 463 226 462.9 226.6C462.9 227.2 462.5 227.7 461.9 228.3C461.3 228.9 460.4 229.5 459 230.1C457.7 230.7 455.8 231.6 453.4 232.6C450.7 233.7 448.3 234.9 446.2 236.1C444.1 237.3 442 238.6 440 239.9C438 241.2 436 242.6 433.9 244C431.8 245.4 429.7 246.8 427.4 248.4C429.4 248.1 431.2 247.9 432.8 247.8C434.4 247.8 435.9 247.7 437.4 247.7H442.1C443.7 247.7 445.2 247.9 446.5 248.2C447.8 248.5 448.9 249.2 449.8 250.1C450.7 251 451.1 252.3 451.1 254C451.1 255.7 450.8 255.8 450.2 256.5C449.6 257.2 448.8 257.6 447.6 257.6L447.3 257.4Z" fill="#1D1D1B"/>
<path d="M504.5 238.1C506.3 236.8 507.6 235.9 508.4 235.4C509.2 234.9 509.7 234.7 510.1 234.7C510.5 234.7 510.9 234.9 511 235.3C511 235.7 511.1 236 511.1 236.3C511.1 237.9 510.1 239.6 508.1 241.5C506.1 243.3 503.5 245.7 500.4 248.7C498.2 250.7 495.7 252.8 493 255.1C490.2 257.3 487.5 259.4 484.7 261.2C481.9 263 479.3 264.5 476.8 265.7C474.3 266.9 472.3 267.5 470.6 267.5C468.9 267.5 467.2 267.1 465.4 266.4C463.5 265.7 461.8 264.7 460.2 263.5C458.6 262.3 457.2 260.8 456.1 259.2C455 257.6 454.5 255.8 454.5 253.9C454.5 252 455.1 248.9 456.3 246.2C457.5 243.4 459 240.7 460.9 237.9C462.8 235.1 465 232.5 467.4 230C469.8 227.5 472.3 225.2 474.9 223.3C477.5 221.3 480 219.8 482.5 218.6C485 217.4 487.2 216.8 489.1 216.8C491 216.8 492.7 217.2 494.3 218C495.9 218.8 497.2 219.8 498.4 220.9C499.5 222 500.5 223.1 501.1 224.3C501.8 225.4 502.1 226.4 502.1 227.2C502.1 230 501 232.8 498.7 235.6C496.4 238.5 493.8 241 490.8 243.3C487.8 245.6 485 247.5 482.1 249C479.3 250.5 477.4 251.2 476.3 251.2C475.2 251.2 474.7 250.8 473.6 250.1C472.5 249.4 471.8 248.7 471.6 248.1L468.9 253.1L469.2 252.8C468.9 253.6 468.7 254.3 468.6 254.9C468.5 255.5 468.4 256 468.4 256.3C469 256.5 469.5 256.6 470 256.7C470.5 256.7 471.2 256.8 471.9 256.8C473 256.8 474.4 256.6 476 256.1C477.6 255.6 479.7 254.7 482.2 253.3C484.7 251.9 487.7 250 491.4 247.6C495 245.2 499.4 242.1 504.6 238.3L504.5 238.1ZM490.6 227.9H490.5C490.2 227.9 489.6 228.3 488.7 229C487.8 229.7 486.7 230.7 485.4 231.9C484.1 233.1 482.7 234.5 481.2 236C479.7 237.5 478.1 239.1 476.3 240.9C478.1 240.9 479.9 240.3 481.7 239.3C483.5 238.3 485 237.3 486.4 236.1C487.8 234.9 488.9 233.7 489.8 232.4C490.7 231.1 491.1 230 491.1 229.2C491.1 228.4 491 228.3 490.7 228.1L490.6 227.9Z" fill="#1D1D1B"/>
<path d="M555.7 176.6C555.4 175.5 554.9 174.5 554.3 173.6C553.6 172.7 552.8 172 551.9 171.4C550.9 170.8 550.1 170.5 549.3 170.5C547.2 170.5 544.5 172.2 541.1 175.7C537.8 179.2 534.2 183.6 530.5 189.1C526.8 194.5 523.1 200.5 519.3 207.1C515.6 213.7 512.2 220.1 509.2 226.3C506.2 232.5 503.8 238.2 501.9 243.3C500 248.4 499.1 252.1 499.1 254.5C499.1 256.9 499.3 257.2 499.7 258.6C500.1 260 500.8 261.2 501.6 262.4C502.4 263.5 503.4 264.5 504.5 265.3C505.6 266.1 506.9 266.4 508.3 266.4C509.7 266.4 509.2 266.3 509.5 266C509.8 265.7 510.3 265.3 511 264.9C511.8 264.5 513 263.6 514.7 262.1C516.4 260.6 518.4 258.9 520.6 257C522.8 255.1 525.1 253 527.5 250.8C529.9 248.6 532.1 246.6 534 244.7C536 242.8 537.6 241.3 538.8 240.1C540 238.9 540.7 238.1 540.7 238C540.7 237.5 540.3 236.9 539.4 236.1C538.5 235.3 537.6 235 536.7 235C535.8 235 534.6 235.3 533.6 235.9C532.6 236.5 531.6 237.2 530.5 238.2C527 241.3 524.1 243.9 521.8 245.9C519.5 247.9 517.7 249.5 516.3 250.6C514.9 251.7 513.9 252.5 513.3 253C512.7 253.4 512.3 253.6 512.1 253.6C511.9 253.6 512 253.6 512 253.5C512 251.2 512.9 248.2 514.6 244.4C516.4 240.6 518.6 236.5 521.3 232C524 227.5 527 222.7 530.4 217.8C533.7 212.9 537 208.1 540.3 203.4C543.5 198.7 546.5 194.3 549.2 190.2C551.9 186.1 554 182.7 555.4 179.8C555.9 178.8 556 177.8 555.7 176.7V176.6Z" fill="#1D1D1B"/>
<path d="M334.8 168.8C336.9 169.6 338.8 170.6 340.5 171.9V164L346.5 151L361.4 195.6C361.6 196.5 362.2 197 363.2 197H369.5C370 196.3 370.6 195.6 371.3 194.9C371.3 194.9 371.4 194.8 371.5 194.7C374.5 192 378.2 190.5 382 190.5C385.8 190.5 386.8 191.2 388.9 192.5L364.3 125.3L387.8 79.3C388 78.8 388.1 78.4 387.8 78.1C387.5 77.8 387.3 77.6 386.8 77.6H362C360.8 77.6 360 78.1 359.5 79.2L340.2 121.7V79.4C340.2 78.2 339.6 77.6 338.4 77.6H314C312.8 77.6 312.2 78.2 312.2 79.4V169.5C317.2 168.2 322.2 167.6 327.1 167.6C332 167.6 332.1 168 334.5 168.9L334.8 168.8Z" fill="#1D1D1B"/>
<path d="M525.8 185.9C528.8 181.5 531.7 177.7 534.5 174.5V173.9C534.5 172.7 533.9 172.1 532.7 172.1H504.1C503.4 172.1 503 171.7 503 171V150.3C503 149.6 503.4 149.2 504.1 149.2H528.7C529.9 149.2 530.5 148.6 530.5 147.4V126C530.5 124.8 529.9 124.2 528.7 124.2H504.1C503.4 124.2 503 123.8 503 123.1V103.4C503 102.7 503.4 102.3 504.1 102.3H532.7C533.9 102.3 534.5 101.7 534.5 100.5V79.1C534.5 77.9 533.9 77.3 532.7 77.3H476.8C475.6 77.3 475 77.9 475 79.1V195.1C475 196.3 475.6 196.9 476.8 196.9H518.5C520.9 193 523.3 189.2 525.7 185.7L525.8 185.9Z" fill="#1D1D1B"/>
<path d="M298 77.6H275.1C274.106 77.6 273.3 78.4059 273.3 79.4V98.6C273.3 99.5941 274.106 100.4 275.1 100.4H298C298.994 100.4 299.8 99.5941 299.8 98.6V79.4C299.8 78.4059 298.994 77.6 298 77.6Z" fill="#1D1D1B"/>
<path d="M299.2 174.2C299.4 174.2 299.6 174 299.8 173.9V113.2C299.8 112 299.2 111.4 298 111.4H275C273.8 111.4 273.2 112 273.2 113.2V189.4C282 183.2 290.7 178.1 299.1 174.1L299.2 174.2Z" fill="#1D1D1B"/>
</svg>
